<svg xmlns="http://www.w3.org/2000/svg" width="183" height="144" viewBox="0 0 183 144">
<g>
<path d="M 95.74 132.40 C96.20,132.87 99.18,132.54 104.76,131.41 C106.95,130.97 106.91,130.85 103.51,127.44 C101.58,125.51 100.00,123.50 100.00,122.97 C100.00,122.43 99.59,122.00 99.10,122.00 C98.20,122.00 95.59,116.16 95.86,114.75 C95.94,114.34 95.47,114.00 94.83,114.00 C94.19,114.00 93.93,113.74 94.24,113.42 C94.56,113.11 94.35,111.42 93.79,109.67 C92.48,105.62 92.04,89.86 93.19,88.36 C93.68,87.73 94.00,86.83 93.92,86.36 C93.83,85.88 93.87,85.16 94.01,84.75 C94.14,84.34 94.32,83.66 94.41,83.25 C94.50,82.84 95.10,81.55 95.75,80.38 C96.40,79.22 96.65,77.98 96.30,77.63 C95.95,77.28 96.22,77.00 96.89,77.00 C97.57,77.00 97.84,76.55 97.50,76.00 C97.16,75.45 97.36,75.00 97.94,75.00 C98.52,75.00 99.00,74.32 99.00,73.50 C99.00,72.68 99.45,72.00 100.00,72.00 C100.55,72.00 101.00,71.55 101.00,71.00 C101.00,69.73 108.68,62.00 109.95,62.00 C110.47,62.00 111.26,61.44 111.70,60.75 C113.13,58.51 123.65,53.85 127.23,53.86 C128.18,53.87 129.16,53.56 129.39,53.17 C130.14,51.96 148.47,52.94 150.68,54.30 C151.31,54.69 152.06,54.45 152.34,53.76 C152.74,52.76 153.03,52.76 153.75,53.79 C154.25,54.49 156.43,56.01 158.58,57.16 C160.74,58.30 162.86,59.86 163.30,60.62 C163.74,61.38 164.69,62.00 165.42,62.00 C167.06,62.00 173.73,69.17 176.91,74.34 C178.21,76.45 180.08,80.72 181.08,83.84 C182.89,89.49 182.89,89.40 182.95,44.75 L 183.00 0.00 L 183.00 144.00 L 0.00 144.00 L 67.75 143.88 C111.75,143.81 133.59,143.45 130.06,142.86 C124.76,141.98 114.21,137.49 112.79,135.51 C112.40,134.96 105.88,134.23 98.29,133.87 C85.52,133.28 80.67,132.48 75.50,130.12 C74.40,129.61 72.04,128.65 70.25,127.98 C68.46,127.31 67.00,126.36 67.00,125.88 C67.00,125.40 66.32,125.00 65.50,125.00 C64.68,125.00 64.00,124.55 64.00,124.00 C64.00,123.45 63.53,123.00 62.96,123.00 C61.78,123.00 60.72,122.17 54.67,116.48 C52.31,114.26 50.09,111.67 49.72,110.73 C49.36,109.78 48.60,109.00 48.03,109.00 C47.46,109.00 47.00,108.36 47.00,107.58 C47.00,106.80 46.66,106.02 46.25,105.83 C45.42,105.46 41.80,98.25 41.41,96.17 C41.27,95.44 40.83,94.09 40.43,93.17 C39.32,90.63 37.91,83.88 37.73,80.25 C37.69,79.56 37.63,79.01 37.58,79.01 C37.54,79.02 35.03,79.71 32.00,80.55 C28.98,81.39 20.54,82.35 13.25,82.69 L 0.00 83.30 L 0.00 32.67 C0.00,61.41 0.45,69.64 1.60,61.78 C2.04,58.76 2.54,56.85 3.43,54.83 C3.83,53.91 4.31,52.33 4.50,51.33 C4.69,50.32 4.93,49.28 5.04,49.00 C5.15,48.72 5.18,48.16 5.12,47.75 C5.05,47.34 5.48,47.00 6.06,47.00 C6.64,47.00 6.84,46.55 6.50,46.00 C6.16,45.45 6.39,45.00 7.00,45.00 C7.61,45.00 7.84,44.55 7.50,44.00 C7.16,43.45 7.43,43.00 8.11,43.00 C8.78,43.00 9.07,42.74 8.75,42.42 C8.43,42.09 8.81,41.08 9.59,40.17 C10.37,39.25 10.90,38.18 10.76,37.79 C10.62,37.40 11.40,36.43 12.50,35.62 C13.60,34.82 14.53,33.79 14.56,33.33 C14.65,32.06 22.32,24.47 24.28,23.72 C25.22,23.36 26.00,22.57 26.00,21.97 C26.00,21.37 26.45,21.16 27.00,21.50 C28.50,22.43 28.21,23.98 26.40,24.68 C24.61,25.36 15.01,34.71 14.98,35.80 C14.97,36.18 13.85,37.56 12.49,38.85 C11.12,40.14 10.26,41.61 10.56,42.10 C10.87,42.60 10.61,43.00 10.00,43.00 C9.39,43.00 9.16,43.45 9.50,44.00 C9.84,44.55 9.61,45.00 9.00,45.00 C8.39,45.00 8.16,45.45 8.50,46.00 C8.84,46.55 8.61,47.00 8.00,47.00 C7.39,47.00 7.14,47.42 7.46,47.93 C7.77,48.44 7.57,49.15 7.00,49.50 C6.43,49.85 6.23,50.56 6.54,51.07 C6.86,51.58 6.59,52.00 5.95,52.00 C5.31,52.00 5.03,52.63 5.32,53.40 C5.62,54.17 5.56,55.11 5.18,55.49 C4.81,55.86 4.44,56.58 4.38,57.08 C4.31,57.59 4.14,58.11 4.00,58.25 C3.63,58.61 3.17,62.43 2.48,70.75 C2.12,75.10 2.26,78.00 2.83,78.00 C3.36,78.00 5.52,75.90 7.64,73.34 C13.82,65.87 38.22,42.00 39.67,42.00 C40.11,42.00 41.75,40.76 43.30,39.25 C44.85,37.74 47.16,35.49 48.42,34.25 C49.69,33.01 51.25,32.00 51.90,32.00 C52.54,32.00 53.32,31.33 53.64,30.50 C53.95,29.67 54.85,29.00 55.64,29.00 C56.42,29.00 57.32,28.33 57.64,27.50 C57.95,26.67 58.84,26.00 59.61,26.00 C60.37,26.00 61.00,25.55 61.00,25.00 C61.00,24.45 61.59,24.00 62.31,24.00 C63.03,24.00 64.59,23.10 65.77,22.00 C66.95,20.90 68.39,20.00 68.96,20.00 C69.53,20.00 70.00,19.60 70.00,19.11 C70.00,18.62 71.18,17.92 72.62,17.56 C76.58,16.57 74.86,15.71 66.00,14.28 C60.48,13.39 48.60,13.82 46.00,15.01 C45.72,15.13 45.12,15.17 44.64,15.08 C44.17,15.00 43.16,15.45 42.39,16.09 C41.63,16.72 41.00,16.94 41.00,16.56 C41.00,15.74 30.64,21.18 30.16,22.26 C29.98,22.67 29.37,22.73 28.81,22.38 C27.44,21.54 32.67,17.11 35.94,16.33 C37.35,16.00 39.03,15.31 39.68,14.80 C40.32,14.29 42.12,13.71 43.68,13.51 C45.23,13.30 46.50,13.06 46.50,12.96 C46.50,12.68 54.24,11.84 58.00,11.72 C59.92,11.66 63.53,11.95 66.00,12.36 C76.82,14.18 79.05,14.20 82.58,12.53 C84.53,11.61 87.33,10.69 88.81,10.49 C90.29,10.30 91.72,10.11 92.00,10.07 C92.28,10.03 92.57,8.99 92.66,7.75 C93.06,2.02 93.42,1.51 97.50,0.90 C99.70,0.57 78.66,0.23 50.75,0.15 L 0.00 0.00 L 103.50 0.00 L 103.42 2.25 C103.38,3.49 102.98,8.21 102.54,12.75 C101.74,20.98 101.75,21.00 104.12,21.07 C115.26,21.40 133.20,28.42 136.30,33.65 C136.74,34.39 137.62,35.00 138.25,35.00 C139.84,35.00 146.00,41.10 146.00,42.66 C146.00,43.36 146.91,44.42 148.03,45.01 C149.14,45.61 149.83,46.47 149.55,46.92 C149.27,47.37 149.93,48.53 151.00,49.50 C152.07,50.47 152.71,51.66 152.42,52.13 C151.55,53.53 150.00,53.13 150.00,51.50 C150.00,50.67 149.52,50.00 148.94,50.00 C148.36,50.00 148.16,49.55 148.50,48.99 C148.85,48.44 148.42,47.72 147.56,47.39 C146.70,47.06 146.00,46.36 146.00,45.84 C146.00,44.48 136.49,35.00 135.13,35.00 C134.51,35.00 134.00,34.55 134.00,34.00 C134.00,33.45 133.32,33.00 132.50,33.00 C131.68,33.00 131.00,32.64 131.00,32.19 C131.00,31.31 124.03,28.00 122.16,28.00 C121.52,28.00 121.00,27.55 121.00,27.00 C121.00,26.45 120.66,26.05 120.25,26.12 C119.84,26.18 119.16,26.13 118.75,25.99 C118.34,25.86 117.55,25.64 117.00,25.50 C116.45,25.36 115.89,25.14 115.75,25.00 C114.71,23.95 102.00,22.92 102.00,23.88 C102.00,24.76 104.63,26.17 105.41,25.72 C105.62,25.60 106.74,26.36 107.90,27.41 C109.86,29.19 109.91,29.50 108.47,31.69 C107.61,32.99 107.17,34.47 107.49,34.98 C108.31,36.31 104.17,38.27 101.58,37.77 C100.38,37.54 98.82,37.97 98.11,38.73 C97.26,39.64 96.43,39.78 95.66,39.14 C95.02,38.60 94.17,38.12 93.76,38.06 C93.35,38.00 92.45,37.76 91.76,37.53 C91.07,37.30 89.69,36.98 88.70,36.81 C87.71,36.64 86.90,36.28 86.90,36.00 C86.90,35.72 86.51,33.78 86.04,31.67 C85.20,27.97 85.29,27.79 88.34,26.70 C90.08,26.08 91.88,25.68 92.34,25.81 C92.81,25.95 93.01,25.54 92.80,24.89 C92.30,23.40 86.31,22.70 85.48,24.03 C85.14,24.58 84.42,24.76 83.89,24.43 C83.35,24.10 82.19,24.43 81.30,25.16 C80.42,25.90 79.46,26.27 79.18,26.00 C78.90,25.73 78.53,26.40 78.37,27.50 C77.64,32.44 76.59,36.84 75.57,39.17 C75.17,40.09 74.69,41.67 74.50,42.67 C74.31,43.68 74.07,44.72 73.96,45.00 C73.85,45.28 73.82,45.84 73.88,46.25 C73.95,46.66 73.52,47.00 72.94,47.00 C72.36,47.00 72.16,47.45 72.50,48.00 C72.84,48.55 72.61,49.00 72.00,49.00 C71.39,49.00 71.16,49.45 71.50,50.00 C71.84,50.55 71.67,51.00 71.12,51.00 C70.57,51.00 69.84,50.55 69.50,50.00 C69.16,49.45 69.39,49.00 70.00,49.00 C70.61,49.00 70.86,48.59 70.55,48.09 C70.24,47.58 70.43,47.02 70.96,46.84 C71.50,46.65 72.15,45.38 72.40,44.00 C72.65,42.62 72.94,41.39 73.05,41.25 C73.16,41.11 73.36,40.55 73.50,40.00 C73.64,39.45 73.86,38.78 74.00,38.50 C74.14,38.22 74.31,37.66 74.39,37.25 C74.47,36.84 74.89,35.94 75.32,35.25 C75.76,34.56 75.84,33.55 75.50,33.00 C75.16,32.45 75.25,31.44 75.69,30.75 C76.14,30.06 76.50,26.75 76.50,23.39 C76.50,17.42 76.45,17.30 74.25,18.30 C73.01,18.86 72.00,19.70 72.00,20.16 C72.00,20.62 71.32,21.00 70.50,21.00 C69.68,21.00 69.00,21.48 69.00,22.06 C69.00,22.64 68.55,22.84 67.99,22.50 C67.44,22.15 66.72,22.57 66.39,23.43 C66.06,24.29 65.38,24.74 64.89,24.43 C64.39,24.12 63.72,24.58 63.39,25.44 C63.06,26.30 62.15,27.00 61.36,27.00 C60.58,27.00 59.68,27.67 59.36,28.50 C59.05,29.33 58.21,30.00 57.50,30.00 C56.79,30.00 55.95,30.67 55.64,31.50 C55.32,32.33 54.52,33.00 53.87,33.00 C53.21,33.00 51.96,33.66 51.08,34.47 C50.21,35.28 47.92,37.29 46.00,38.93 C37.44,46.24 34.71,48.74 21.67,61.24 C14.06,68.54 7.22,75.67 6.46,77.11 L 5.10 79.71 L 12.65 80.35 C16.80,80.70 20.59,80.75 21.07,80.46 C21.55,80.16 23.64,79.72 25.72,79.47 C30.25,78.92 33.41,78.35 33.75,78.00 C33.89,77.86 34.45,77.64 35.00,77.50 C35.55,77.36 36.22,77.14 36.50,77.00 C36.78,76.86 37.34,76.68 37.75,76.59 C38.16,76.50 39.45,75.90 40.62,75.25 C41.78,74.60 43.02,74.35 43.37,74.70 C43.72,75.05 44.00,74.78 44.00,74.11 C44.00,73.43 44.45,73.16 45.00,73.50 C45.55,73.84 46.00,73.61 46.00,73.00 C46.00,72.39 46.45,72.16 47.00,72.50 C47.55,72.84 48.00,72.55 48.00,71.86 C48.00,70.89 48.27,70.87 49.18,71.78 C49.83,72.43 50.17,73.10 49.93,73.26 C48.65,74.14 41.35,77.38 40.50,77.45 C39.52,77.53 39.50,79.53 40.43,85.50 C40.94,88.80 41.73,92.36 42.05,92.75 C42.16,92.89 42.36,93.45 42.50,94.00 C42.64,94.55 42.86,95.34 42.99,95.75 C43.13,96.16 43.18,96.84 43.12,97.25 C43.05,97.66 43.48,98.00 44.06,98.00 C44.64,98.00 44.84,98.45 44.50,99.00 C44.16,99.55 44.39,100.00 45.00,100.00 C45.61,100.00 45.84,100.45 45.50,101.00 C45.16,101.55 45.39,102.00 46.00,102.00 C46.61,102.00 46.84,102.45 46.50,103.00 C46.16,103.55 46.36,104.00 46.94,104.00 C47.52,104.00 48.00,104.68 48.00,105.50 C48.00,106.32 48.45,107.00 49.00,107.00 C49.55,107.00 50.00,107.42 50.00,107.93 C50.00,109.15 60.85,120.00 62.07,120.00 C62.58,120.00 63.00,120.45 63.00,121.00 C63.00,121.55 63.67,122.00 64.50,122.00 C65.32,122.00 66.00,122.34 66.00,122.76 C66.00,123.40 75.09,128.11 77.25,128.59 C77.66,128.68 78.11,128.84 78.25,128.95 C78.39,129.06 79.18,129.32 80.00,129.52 C80.82,129.72 82.62,130.18 84.00,130.54 C85.38,130.90 88.47,131.35 90.87,131.55 C93.27,131.74 95.46,132.13 95.74,132.40 ZM 133.80 141.47 C134.65,142.32 139.46,142.08 142.60,141.03 C144.20,140.50 146.85,139.86 148.50,139.61 C150.15,139.37 151.61,139.07 151.75,138.96 C151.89,138.84 152.34,138.69 152.75,138.61 C155.09,138.19 160.00,135.62 160.00,134.82 C160.00,134.30 160.45,134.16 161.01,134.50 C161.56,134.85 162.28,134.42 162.61,133.56 C162.94,132.70 163.79,132.00 164.50,132.00 C165.59,132.00 168.21,129.33 173.03,123.29 C173.57,122.63 174.00,121.62 174.00,121.04 C174.00,120.47 174.42,120.00 174.93,120.00 C175.69,120.00 177.11,117.23 177.49,115.00 C177.53,114.72 178.14,113.48 178.83,112.23 C179.53,110.98 179.84,109.55 179.53,109.05 C179.22,108.55 179.38,107.88 179.90,107.56 C181.26,106.72 180.42,86.08 178.95,84.25 C178.84,84.11 178.66,83.66 178.56,83.25 C178.08,81.38 174.42,74.47 173.75,74.17 C173.34,73.98 173.00,73.41 173.00,72.90 C173.00,71.66 163.24,62.00 161.99,62.00 C161.44,62.00 161.00,61.60 161.00,61.12 C161.00,60.21 155.61,57.65 154.40,57.98 C154.03,58.09 153.42,57.68 153.05,57.09 C152.14,55.61 147.01,54.87 137.50,54.85 C129.28,54.83 126.52,55.14 125.43,56.24 C125.09,56.58 124.17,56.62 123.40,56.32 C122.63,56.03 122.00,56.28 122.00,56.89 C122.00,57.50 121.66,57.89 121.25,57.76 C120.03,57.37 114.00,60.17 114.00,61.12 C114.00,61.60 113.55,62.00 113.00,62.00 C111.83,62.00 102.00,72.00 102.00,73.19 C102.00,73.64 101.64,74.00 101.19,74.00 C100.50,74.00 96.87,81.02 96.41,83.25 C96.32,83.66 96.14,84.34 96.01,84.75 C95.87,85.16 95.83,85.88 95.92,86.36 C96.00,86.83 95.65,87.73 95.13,88.36 C94.12,89.58 94.36,104.51 95.46,109.47 C95.82,111.10 96.54,112.94 97.05,113.56 C97.56,114.18 97.69,114.98 97.32,115.34 C96.96,115.70 97.22,116.00 97.89,116.00 C98.57,116.00 98.84,116.45 98.50,117.00 C98.16,117.55 98.39,118.00 99.00,118.00 C99.61,118.00 99.84,118.45 99.50,119.00 C99.16,119.55 99.36,120.00 99.94,120.00 C100.52,120.00 101.00,120.63 101.00,121.39 C101.00,122.16 101.70,123.06 102.56,123.39 C103.42,123.72 103.87,124.39 103.57,124.89 C103.08,125.68 104.80,127.39 111.98,133.28 C112.79,133.95 113.81,134.39 114.23,134.25 C114.65,134.11 115.00,134.40 115.00,134.88 C115.00,135.63 119.99,138.20 122.25,138.61 C122.66,138.69 123.11,138.84 123.25,138.95 C123.61,139.24 127.03,139.98 130.39,140.50 C131.97,140.74 133.51,141.18 133.80,141.47 ZM 145.16 142.98 C142.09,143.50 147.77,143.80 161.75,143.88 L 183.00 144.00 L 182.97 125.25 L 182.93 106.50 L 181.20 111.51 C178.21,120.17 174.39,125.70 166.23,133.25 C165.18,134.21 163.81,135.00 163.17,135.00 C162.52,135.00 162.00,135.39 162.00,135.86 C162.00,137.19 150.40,142.09 145.16,142.98 ZM 116.64 126.93 C118.70,128.56 119.07,129.33 118.17,130.23 C117.28,131.12 117.00,131.12 117.00,130.20 C117.00,129.54 116.53,129.00 115.96,129.00 C114.84,129.00 106.65,120.97 106.56,119.78 C106.53,119.39 105.75,118.19 104.83,117.12 C103.91,116.05 103.43,114.91 103.75,114.58 C104.07,114.26 103.73,114.00 103.00,114.00 C102.27,114.00 101.95,113.72 102.29,113.37 C102.64,113.03 102.28,111.51 101.50,110.00 C100.72,108.49 100.33,107.00 100.64,106.69 C100.95,106.39 100.84,105.55 100.41,104.85 C99.40,103.22 99.94,87.58 101.04,86.25 C101.16,86.11 101.33,85.66 101.42,85.25 C101.51,84.84 102.44,82.93 103.50,81.00 C104.55,79.07 105.32,77.16 105.21,76.75 C105.09,76.34 105.41,76.00 105.90,76.00 C106.40,76.00 107.73,74.43 108.87,72.50 C110.00,70.57 111.51,69.00 112.23,69.00 C112.94,69.00 114.64,67.96 116.01,66.70 C118.44,64.45 121.14,62.98 123.83,62.43 C124.56,62.28 125.91,61.83 126.83,61.44 C131.79,59.31 144.38,59.26 147.77,61.36 C148.45,61.78 149.45,61.84 150.00,61.50 C150.55,61.16 151.00,61.36 151.00,61.94 C151.00,62.52 151.34,62.95 151.75,62.89 C153.11,62.70 157.00,64.22 157.00,64.95 C157.00,66.70 155.52,66.80 152.62,65.25 C150.91,64.33 149.16,63.51 148.75,63.42 C148.34,63.33 147.89,63.16 147.75,63.05 C147.31,62.70 142.57,61.77 140.50,61.63 C138.60,61.51 138.47,62.29 137.96,77.00 C137.30,95.86 136.95,95.42 136.92,75.70 C136.90,62.27 136.74,60.94 135.20,61.37 C133.82,61.76 128.15,63.06 126.00,63.49 C125.72,63.54 124.09,64.33 122.38,65.25 C120.66,66.17 118.98,66.65 118.65,66.32 C118.32,65.99 117.76,66.45 117.42,67.36 C117.07,68.26 116.20,69.00 115.48,69.00 C113.83,69.00 105.86,77.96 106.53,79.05 C106.80,79.49 108.60,80.37 110.51,81.00 C112.43,81.64 114.00,82.54 114.00,83.00 C114.00,83.46 115.57,84.36 117.50,85.00 C119.43,85.64 121.00,86.48 121.00,86.88 C121.00,87.27 122.57,88.17 124.50,88.86 C126.43,89.56 128.00,90.50 128.00,90.95 C128.00,91.40 128.90,92.00 130.00,92.29 C132.32,92.90 132.71,95.00 130.50,95.00 C129.68,95.00 129.00,94.58 129.00,94.08 C129.00,93.57 127.43,92.64 125.50,92.00 C123.57,91.36 122.00,90.46 122.00,90.00 C122.00,89.54 120.43,88.64 118.50,88.00 C116.57,87.36 115.00,86.43 115.00,85.92 C115.00,85.42 114.39,85.00 113.65,85.00 C112.91,85.00 111.27,84.10 110.00,83.00 C106.46,79.93 105.42,80.52 103.45,86.75 C101.30,93.52 101.02,101.01 102.71,106.26 C103.38,108.33 103.91,110.13 103.90,110.26 C103.88,110.39 104.17,111.29 104.54,112.25 C105.23,114.04 109.00,114.74 109.00,113.08 C109.00,112.57 110.57,111.64 112.50,111.00 C114.43,110.36 116.00,109.46 116.00,109.00 C116.00,108.54 117.57,107.64 119.50,107.00 C121.43,106.36 123.00,105.43 123.00,104.92 C123.00,104.42 123.61,104.00 124.35,104.00 C125.09,104.00 126.72,103.11 127.98,102.02 C130.18,100.11 132.00,100.12 132.00,102.06 C132.00,102.58 131.36,103.00 130.57,103.00 C129.79,103.00 128.54,103.60 127.81,104.33 C126.57,105.58 123.93,107.15 118.00,110.18 C116.62,110.88 115.28,111.74 115.00,112.09 C114.72,112.44 113.07,113.46 111.31,114.35 C109.56,115.25 107.83,116.46 107.47,117.04 C106.85,118.05 110.88,122.40 116.64,126.93 ZM 147.50 134.65 C143.91,135.54 130.20,135.74 128.88,134.93 C128.18,134.49 127.27,134.33 126.87,134.58 C126.47,134.83 125.85,134.57 125.50,134.00 C125.15,133.43 124.44,133.23 123.93,133.54 C123.42,133.86 123.00,133.72 123.00,133.23 C123.00,131.51 124.23,131.14 126.74,132.09 C128.13,132.62 131.03,133.27 133.18,133.54 L 137.10 134.04 L 136.80 119.02 C136.61,109.47 136.86,104.00 137.50,104.00 C138.14,104.00 138.39,109.46 138.20,118.97 L 137.90 133.95 L 141.74 133.63 C145.83,133.28 157.38,128.50 160.18,126.00 C166.79,120.09 168.09,118.41 167.42,116.64 C167.07,115.74 166.23,115.00 165.55,115.00 C164.86,115.00 163.27,114.10 162.00,113.00 C160.73,111.90 159.16,111.00 158.50,111.00 C157.84,111.00 156.27,110.10 155.00,109.00 C153.73,107.90 152.16,107.00 151.50,107.00 C150.84,107.00 149.27,106.10 148.00,105.00 C146.73,103.90 145.09,103.00 144.35,103.00 C142.81,103.00 142.54,101.40 143.92,100.55 C144.43,100.24 145.46,100.60 146.22,101.36 C146.97,102.12 148.58,103.05 149.79,103.43 C151.00,103.82 152.57,104.66 153.28,105.32 C155.41,107.27 166.10,112.94 170.47,114.43 C172.12,115.00 172.20,115.26 170.97,116.04 C170.16,116.55 169.95,116.98 170.50,117.00 C171.05,117.02 170.82,117.46 170.00,117.98 C169.18,118.50 168.48,119.28 168.46,119.71 C168.41,120.81 159.96,129.00 158.88,129.00 C158.40,129.00 158.00,129.35 158.00,129.78 C158.00,130.42 154.00,132.48 150.75,133.51 C150.34,133.64 149.89,133.84 149.75,133.95 C149.61,134.06 148.60,134.38 147.50,134.65 ZM 131.14 124.06 C128.75,126.97 122.96,127.47 120.74,124.96 C118.91,122.91 118.65,117.00 120.38,117.00 C120.90,117.00 121.03,116.70 120.66,116.33 C119.82,115.49 122.91,112.00 124.50,112.00 C125.16,112.00 126.73,111.10 128.00,110.00 C132.02,106.51 132.17,106.72 132.55,116.28 C132.71,120.41 132.30,122.63 131.14,124.06 ZM 153.09 82.88 C150.78,86.12 148.46,86.66 144.19,84.95 C142.91,84.43 142.15,83.56 142.49,83.01 C142.84,82.45 142.75,82.00 142.31,82.00 C141.63,82.00 141.42,75.63 142.05,74.00 C142.15,73.72 142.18,73.16 142.12,72.75 C142.05,72.34 142.48,72.00 143.06,72.00 C143.64,72.00 143.84,71.55 143.50,71.00 C143.16,70.45 143.39,70.00 144.00,70.00 C144.61,70.00 144.84,69.55 144.50,69.00 C144.16,68.45 144.39,68.00 145.00,68.00 C145.61,68.00 145.84,67.55 145.50,67.00 C144.23,64.94 146.18,66.11 149.41,69.35 C151.25,71.19 153.33,74.28 154.04,76.22 C155.19,79.42 155.10,80.05 153.09,82.88 ZM 172.50 113.00 C172.84,113.55 172.72,114.00 172.23,114.00 C170.55,114.00 170.02,112.68 171.15,111.32 C171.77,110.57 172.46,108.73 172.68,107.23 C173.55,101.38 173.06,86.50 172.00,86.50 C171.92,86.50 171.69,85.65 171.49,84.62 C170.91,81.51 169.19,80.37 167.22,81.78 C166.28,82.46 164.38,83.57 163.00,84.25 C161.62,84.92 159.91,86.04 159.18,86.74 C158.45,87.43 157.28,88.00 156.58,88.00 C155.88,88.00 154.27,88.90 153.00,90.00 C151.73,91.10 150.14,92.00 149.47,92.00 C148.80,92.00 147.68,92.68 147.00,93.50 C146.32,94.32 145.15,95.00 144.41,95.00 C143.62,95.00 143.30,94.38 143.64,93.50 C143.95,92.68 144.77,92.00 145.45,92.00 C146.14,92.00 147.73,91.10 149.00,90.00 C150.27,88.90 151.91,88.00 152.65,88.00 C153.39,88.00 154.00,87.58 154.00,87.08 C154.00,86.57 155.57,85.64 157.50,85.00 C159.43,84.36 161.00,83.50 161.00,83.07 C161.00,82.65 162.84,81.58 165.08,80.70 C168.20,79.48 168.92,78.79 168.13,77.80 C163.62,72.13 159.65,68.10 159.00,68.50 C158.56,68.77 157.96,68.33 157.65,67.53 C156.74,65.16 158.80,64.75 160.03,67.06 C160.65,68.22 161.43,68.90 161.76,68.58 C162.57,67.77 167.00,72.03 167.00,73.62 C167.00,74.33 167.56,75.26 168.25,75.70 C169.49,76.49 173.50,83.66 173.50,85.09 C173.50,85.50 173.81,86.14 174.18,86.51 C174.56,86.89 174.64,87.78 174.36,88.50 C174.09,89.21 174.26,90.04 174.74,90.34 C175.22,90.64 175.44,94.17 175.23,98.19 C175.01,102.21 174.85,106.28 174.86,107.23 C174.86,108.18 174.44,109.23 173.92,109.55 C173.40,109.87 173.23,110.56 173.54,111.07 C173.86,111.58 173.61,112.00 173.00,112.00 C172.39,112.00 172.16,112.45 172.50,113.00 ZM 94.39 17.93 L 94.27 30.75 L 96.89 30.05 C99.37,29.38 99.51,28.99 99.64,22.42 C99.76,16.34 100.16,11.79 101.21,4.50 C101.44,2.90 101.00,2.56 99.02,2.78 C97.66,2.93 96.08,3.52 95.52,4.08 C94.95,4.65 94.45,10.69 94.39,17.93 ZM 95.56 37.09 C96.02,37.84 96.46,37.87 96.89,37.18 C97.24,36.61 99.32,36.00 101.51,35.82 C103.71,35.65 105.28,35.18 105.00,34.79 C104.72,34.40 105.36,33.46 106.41,32.69 C108.33,31.29 108.01,27.26 106.08,28.45 C105.56,28.77 104.86,28.58 104.51,28.02 C104.16,27.46 103.24,27.00 102.47,27.00 C101.43,27.00 101.21,27.79 101.64,29.96 C102.23,32.89 102.20,32.91 98.37,32.37 C92.36,31.53 91.80,31.21 92.50,29.00 C93.31,26.45 91.94,26.45 89.00,29.00 C87.73,30.10 87.15,31.00 87.71,31.00 C88.27,31.00 88.60,32.14 88.45,33.54 C88.22,35.60 88.51,35.97 90.00,35.50 C91.01,35.18 92.13,35.39 92.48,35.98 C92.84,36.56 93.53,36.79 94.00,36.50 C94.47,36.21 95.17,36.47 95.56,37.09 ZM 79.00 19.55 C79.00,23.00 79.02,23.02 82.75,22.43 C84.81,22.10 87.62,21.76 89.00,21.67 C91.17,21.52 91.58,20.90 92.12,17.00 C92.47,14.52 92.65,12.38 92.52,12.24 C92.40,12.09 89.31,12.90 85.65,14.03 C79.12,16.04 79.00,16.14 79.00,19.55 ZM 144.31 82.36 C144.99,83.81 145.86,84.08 148.29,83.59 C150.00,83.25 151.75,82.41 152.18,81.73 C153.39,79.83 153.14,76.29 151.69,74.82 C150.98,74.09 150.09,72.71 149.73,71.75 C148.78,69.25 146.56,69.59 145.02,72.46 C143.43,75.43 143.12,79.82 144.31,82.36 ZM 122.59 123.45 C126.22,127.08 130.41,123.61 130.57,116.84 C130.67,112.76 130.40,112.00 128.84,112.00 C127.83,112.00 127.00,112.45 127.00,113.00 C127.00,113.55 126.42,114.00 125.72,114.00 C124.42,114.00 121.00,118.95 121.00,120.83 C121.00,121.40 121.72,122.57 122.59,123.45 ZM 53.58 71.00 C52.80,71.00 51.99,71.54 51.77,72.20 C51.49,73.03 51.16,73.07 50.70,72.33 C50.34,71.74 51.20,70.41 52.62,69.38 C56.61,66.48 64.00,59.18 64.00,58.14 C64.00,57.63 64.70,56.94 65.56,56.61 C66.42,56.28 66.85,55.56 66.50,55.01 C66.16,54.45 66.36,54.00 66.94,54.00 C67.52,54.00 68.00,53.33 68.00,52.50 C68.00,50.97 69.18,50.51 70.27,51.61 C70.61,51.94 70.02,53.13 68.97,54.26 C67.93,55.38 67.28,56.64 67.53,57.05 C67.78,57.46 67.32,58.05 66.49,58.36 C65.67,58.68 65.00,59.51 64.99,60.22 C64.98,61.76 59.22,67.41 56.75,68.30 C55.79,68.65 55.00,69.40 55.00,69.97 C55.00,70.54 54.36,71.00 53.58,71.00 ZM 122.00 130.00 C122.99,130.61 123.15,131.25 122.48,131.92 C121.86,132.54 120.92,132.57 120.00,132.00 C119.01,131.39 118.85,130.75 119.52,130.08 C120.14,129.46 121.08,129.43 122.00,130.00 ZM 52.67 84.50 C52.67,85.32 51.92,86.00 51.00,86.00 C50.08,86.00 49.33,85.32 49.33,84.50 C49.33,83.68 50.08,83.00 51.00,83.00 C51.92,83.00 52.67,83.68 52.67,84.50 ZM 86.99 109.97 C87.58,111.09 87.94,111.95 87.79,111.88 C87.63,111.82 86.71,111.56 85.75,111.31 C83.84,110.81 83.45,109.46 84.95,108.53 C85.47,108.21 86.39,108.86 86.99,109.97 ZM 83.95 123.10 C82.82,125.20 82.64,125.30 81.67,124.33 C80.49,123.16 80.95,122.25 82.98,121.71 C84.67,121.27 84.81,121.48 83.95,123.10 ZM 61.73 104.69 C61.92,105.27 61.22,105.97 60.17,106.25 C58.67,106.64 58.36,106.33 58.75,104.83 C59.27,102.87 61.09,102.78 61.73,104.69 ZM 66.25 90.65 C66.39,91.01 65.71,91.42 64.75,91.57 C62.60,91.88 62.49,90.67 64.50,89.00 C65.54,88.14 66.00,88.10 66.00,88.88 C66.00,89.49 66.11,90.29 66.25,90.65 ZM 81.00 64.50 C81.00,66.05 79.82,66.49 78.69,65.36 C77.89,64.56 78.80,63.00 80.06,63.00 C80.58,63.00 81.00,63.67 81.00,64.50 ZM 81.00 80.50 C81.00,82.05 79.82,82.49 78.69,81.36 C77.89,80.56 78.80,79.00 80.06,79.00 C80.58,79.00 81.00,79.68 81.00,80.50 ZM 77.00 97.50 C77.00,98.32 76.55,99.00 76.00,99.00 C75.45,99.00 75.00,98.32 75.00,97.50 C75.00,96.68 75.45,96.00 76.00,96.00 C76.55,96.00 77.00,96.68 77.00,97.50 ZM 0.08 69.42 C0.04,70.47 0.27,71.06 0.60,70.73 C0.94,70.40 0.97,69.53 0.68,68.81 C0.36,68.01 0.13,68.25 0.08,69.42 Z" fill="rgb(20,47,29)"/>
<path d="M 95.74 132.40 C95.46,132.13 93.27,131.74 90.87,131.55 C88.47,131.35 85.38,130.90 84.00,130.54 C82.62,130.18 80.82,129.72 80.00,129.52 C79.18,129.32 78.39,129.06 78.25,128.95 C78.11,128.84 77.66,128.68 77.25,128.59 C75.09,128.11 66.00,123.40 66.00,122.76 C66.00,122.34 65.32,122.00 64.50,122.00 C63.67,122.00 63.00,121.55 63.00,121.00 C63.00,120.45 62.58,120.00 62.07,120.00 C60.85,120.00 50.00,109.15 50.00,107.93 C50.00,107.42 49.55,107.00 49.00,107.00 C48.45,107.00 48.00,106.32 48.00,105.50 C48.00,104.68 47.52,104.00 46.94,104.00 C46.36,104.00 46.16,103.55 46.50,103.00 C46.84,102.45 46.61,102.00 46.00,102.00 C45.39,102.00 45.16,101.55 45.50,101.00 C45.84,100.45 45.61,100.00 45.00,100.00 C44.39,100.00 44.16,99.55 44.50,99.00 C44.84,98.45 44.64,98.00 44.06,98.00 C43.48,98.00 43.05,97.66 43.12,97.25 C43.18,96.84 43.13,96.16 42.99,95.75 C42.86,95.34 42.64,94.55 42.50,94.00 C42.36,93.45 42.16,92.89 42.05,92.75 C41.73,92.36 40.94,88.80 40.43,85.50 C39.50,79.53 39.52,77.53 40.50,77.45 C41.35,77.38 48.65,74.14 49.93,73.26 C50.17,73.10 49.83,72.43 49.18,71.78 C48.27,70.87 48.00,70.89 48.00,71.86 C48.00,72.55 47.55,72.84 47.00,72.50 C46.45,72.16 46.00,72.39 46.00,73.00 C46.00,73.61 45.55,73.84 45.00,73.50 C44.45,73.16 44.00,73.43 44.00,74.11 C44.00,74.78 43.72,75.05 43.37,74.70 C43.02,74.35 41.78,74.60 40.62,75.25 C39.45,75.90 38.16,76.50 37.75,76.59 C37.34,76.68 36.78,76.86 36.50,77.00 C36.22,77.14 35.55,77.36 35.00,77.50 C34.45,77.64 33.89,77.86 33.75,78.00 C33.41,78.35 30.25,78.92 25.72,79.47 C23.64,79.72 21.55,80.16 21.07,80.46 C20.59,80.75 16.80,80.70 12.65,80.35 L 5.10 79.71 L 6.46 77.11 C7.22,75.67 14.06,68.54 21.67,61.24 C34.71,48.74 37.44,46.24 46.00,38.93 C47.92,37.29 50.21,35.28 51.08,34.47 C51.96,33.66 53.21,33.00 53.87,33.00 C54.52,33.00 55.32,32.33 55.64,31.50 C55.95,30.67 56.79,30.00 57.50,30.00 C58.21,30.00 59.05,29.33 59.36,28.50 C59.68,27.67 60.58,27.00 61.36,27.00 C62.15,27.00 63.06,26.30 63.39,25.44 C63.72,24.58 64.39,24.12 64.89,24.43 C65.38,24.74 66.06,24.29 66.39,23.43 C66.72,22.57 67.44,22.15 67.99,22.50 C68.55,22.84 69.00,22.64 69.00,22.06 C69.00,21.48 69.68,21.00 70.50,21.00 C71.32,21.00 72.00,20.62 72.00,20.16 C72.00,19.70 73.01,18.86 74.25,18.30 C76.45,17.30 76.50,17.42 76.50,23.39 C76.50,26.75 76.14,30.06 75.69,30.75 C75.25,31.44 75.16,32.45 75.50,33.00 C75.84,33.55 75.76,34.56 75.32,35.25 C74.89,35.94 74.47,36.84 74.39,37.25 C74.31,37.66 74.14,38.22 74.00,38.50 C73.86,38.78 73.64,39.45 73.50,40.00 C73.36,40.55 73.16,41.11 73.05,41.25 C72.94,41.39 72.65,42.62 72.40,44.00 C72.15,45.38 71.50,46.65 70.96,46.84 C70.43,47.02 70.24,47.58 70.55,48.09 C70.86,48.59 70.61,49.00 70.00,49.00 C69.39,49.00 69.16,49.45 69.50,50.00 C69.84,50.55 70.57,51.00 71.12,51.00 C71.67,51.00 71.84,50.55 71.50,50.00 C71.16,49.45 71.39,49.00 72.00,49.00 C72.61,49.00 72.84,48.55 72.50,48.00 C72.16,47.45 72.36,47.00 72.94,47.00 C73.52,47.00 73.95,46.66 73.88,46.25 C73.82,45.84 73.85,45.28 73.96,45.00 C74.07,44.72 74.31,43.68 74.50,42.67 C74.69,41.67 75.17,40.09 75.57,39.17 C76.59,36.84 77.64,32.44 78.37,27.50 C78.53,26.40 78.90,25.73 79.18,26.00 C79.46,26.27 80.42,25.90 81.30,25.16 C82.19,24.43 83.35,24.10 83.89,24.43 C84.42,24.76 85.14,24.58 85.48,24.03 C86.31,22.70 92.30,23.40 92.80,24.89 C93.01,25.54 92.81,25.95 92.34,25.81 C91.88,25.68 90.08,26.08 88.34,26.70 C85.29,27.79 85.20,27.97 86.04,31.67 C86.51,33.78 86.90,35.72 86.90,36.00 C86.90,36.28 87.71,36.64 88.70,36.81 C89.69,36.98 91.07,37.30 91.76,37.53 C92.45,37.76 93.35,38.00 93.76,38.06 C94.17,38.12 95.02,38.60 95.66,39.14 C96.43,39.78 97.26,39.64 98.11,38.73 C98.82,37.97 100.38,37.54 101.58,37.77 C104.17,38.27 108.31,36.31 107.49,34.98 C107.17,34.47 107.61,32.99 108.47,31.69 C109.91,29.50 109.86,29.19 107.90,27.41 C106.74,26.36 105.62,25.60 105.41,25.72 C104.63,26.17 102.00,24.76 102.00,23.88 C102.00,22.92 114.71,23.95 115.75,25.00 C115.89,25.14 116.45,25.36 117.00,25.50 C117.55,25.64 118.34,25.86 118.75,25.99 C119.16,26.13 119.84,26.18 120.25,26.12 C120.66,26.05 121.00,26.45 121.00,27.00 C121.00,27.55 121.52,28.00 122.16,28.00 C124.03,28.00 131.00,31.31 131.00,32.19 C131.00,32.64 131.68,33.00 132.50,33.00 C133.32,33.00 134.00,33.45 134.00,34.00 C134.00,34.55 134.51,35.00 135.13,35.00 C136.49,35.00 146.00,44.48 146.00,45.84 C146.00,46.36 146.70,47.06 147.56,47.39 C148.42,47.72 148.85,48.44 148.50,48.99 C148.16,49.55 148.36,50.00 148.94,50.00 C149.52,50.00 150.00,50.67 150.00,51.50 C150.00,53.13 151.55,53.53 152.42,52.13 C152.71,51.66 152.07,50.47 151.00,49.50 C149.93,48.53 149.27,47.37 149.55,46.92 C149.58,46.88 149.59,46.84 149.60,46.79 C150.57,48.16 151.48,49.56 152.32,51.00 C153.62,53.23 155.14,54.95 156.95,56.23 C155.43,55.29 154.13,54.31 153.75,53.79 C153.03,52.76 152.74,52.76 152.34,53.76 C152.06,54.45 151.31,54.69 150.68,54.30 C148.47,52.94 130.14,51.96 129.39,53.17 C129.16,53.56 128.18,53.87 127.23,53.86 C123.65,53.85 113.13,58.51 111.70,60.75 C111.26,61.44 110.47,62.00 109.95,62.00 C108.68,62.00 101.00,69.73 101.00,71.00 C101.00,71.55 100.55,72.00 100.00,72.00 C99.45,72.00 99.00,72.68 99.00,73.50 C99.00,74.32 98.52,75.00 97.94,75.00 C97.36,75.00 97.16,75.45 97.50,76.00 C97.84,76.55 97.57,77.00 96.89,77.00 C96.22,77.00 95.95,77.28 96.30,77.63 C96.65,77.98 96.40,79.22 95.75,80.38 C95.10,81.55 94.50,82.84 94.41,83.25 C94.32,83.66 94.14,84.34 94.01,84.75 C93.87,85.16 93.83,85.88 93.92,86.36 C94.00,86.83 93.68,87.73 93.19,88.36 C92.04,89.86 92.48,105.62 93.79,109.67 C94.35,111.42 94.56,113.11 94.24,113.42 C93.93,113.74 94.19,114.00 94.83,114.00 C95.47,114.00 95.94,114.34 95.86,114.75 C95.59,116.16 98.20,122.00 99.10,122.00 C99.59,122.00 100.00,122.43 100.00,122.97 C100.00,123.50 101.58,125.51 103.51,127.44 C106.91,130.85 106.95,130.97 104.76,131.41 C99.18,132.54 96.20,132.87 95.74,132.40 ZM 133.80 141.47 C133.51,141.18 131.97,140.74 130.39,140.50 C127.03,139.98 123.61,139.24 123.25,138.95 C123.11,138.84 122.66,138.69 122.25,138.61 C119.99,138.20 115.00,135.63 115.00,134.88 C115.00,134.40 114.65,134.11 114.23,134.25 C113.81,134.39 112.79,133.95 111.98,133.28 C104.80,127.39 103.08,125.68 103.57,124.89 C103.87,124.39 103.42,123.72 102.56,123.39 C101.70,123.06 101.00,122.16 101.00,121.39 C101.00,120.63 100.52,120.00 99.94,120.00 C99.36,120.00 99.16,119.55 99.50,119.00 C99.84,118.45 99.61,118.00 99.00,118.00 C98.39,118.00 98.16,117.55 98.50,117.00 C98.84,116.45 98.57,116.00 97.89,116.00 C97.22,116.00 96.96,115.70 97.32,115.34 C97.69,114.98 97.56,114.18 97.05,113.56 C96.54,112.94 95.82,111.10 95.46,109.47 C94.36,104.51 94.12,89.58 95.13,88.36 C95.65,87.73 96.00,86.83 95.92,86.36 C95.83,85.88 95.87,85.16 96.01,84.75 C96.14,84.34 96.32,83.66 96.41,83.25 C96.87,81.02 100.50,74.00 101.19,74.00 C101.64,74.00 102.00,73.64 102.00,73.19 C102.00,72.00 111.83,62.00 113.00,62.00 C113.55,62.00 114.00,61.60 114.00,61.12 C114.00,60.17 120.03,57.37 121.25,57.76 C121.66,57.89 122.00,57.50 122.00,56.89 C122.00,56.28 122.63,56.03 123.40,56.32 C124.17,56.62 125.09,56.58 125.43,56.24 C126.52,55.14 129.28,54.83 137.50,54.85 C147.01,54.87 152.14,55.61 153.05,57.09 C153.42,57.68 154.03,58.09 154.40,57.98 C155.61,57.65 161.00,60.21 161.00,61.12 C161.00,61.60 161.44,62.00 161.99,62.00 C163.24,62.00 173.00,71.66 173.00,72.90 C173.00,73.41 173.34,73.98 173.75,74.17 C174.42,74.47 178.08,81.38 178.56,83.25 C178.66,83.66 178.84,84.11 178.95,84.25 C180.42,86.08 181.26,106.72 179.90,107.56 C179.38,107.88 179.22,108.55 179.53,109.05 C179.84,109.55 179.53,110.98 178.83,112.23 C178.14,113.48 177.53,114.72 177.49,115.00 C177.11,117.23 175.69,120.00 174.93,120.00 C174.42,120.00 174.00,120.47 174.00,121.04 C174.00,121.62 173.57,122.63 173.03,123.29 C168.21,129.33 165.59,132.00 164.50,132.00 C163.79,132.00 162.94,132.70 162.61,133.56 C162.28,134.42 161.56,134.85 161.01,134.50 C160.45,134.16 160.00,134.30 160.00,134.82 C160.00,135.62 155.09,138.19 152.75,138.61 C152.34,138.69 151.89,138.84 151.75,138.96 C151.61,139.07 150.15,139.37 148.50,139.61 C146.85,139.86 144.20,140.50 142.60,141.03 C139.46,142.08 134.65,142.32 133.80,141.47 ZM 116.64 126.93 C110.88,122.40 106.85,118.05 107.47,117.04 C107.49,117.02 107.50,117.00 107.52,116.98 C107.27,117.57 109.14,120.05 111.72,122.56 C114.84,125.59 118.02,127.94 121.62,129.80 C120.83,129.45 120.05,129.55 119.52,130.08 C118.85,130.75 119.01,131.39 120.00,132.00 C120.92,132.57 121.86,132.54 122.48,131.92 C123.15,131.25 122.99,130.61 122.00,130.00 C121.98,129.99 121.96,129.97 121.93,129.96 C123.73,130.87 125.63,131.67 127.67,132.37 C127.91,132.45 128.16,132.53 128.43,132.61 C127.76,132.44 127.17,132.26 126.74,132.09 C124.23,131.14 123.00,131.51 123.00,133.23 C123.00,133.72 123.42,133.86 123.93,133.54 C124.44,133.23 125.15,133.43 125.50,134.00 C125.85,134.57 126.47,134.83 126.87,134.58 C127.27,134.33 128.18,134.49 128.88,134.93 C130.20,135.74 143.91,135.54 147.50,134.65 C148.60,134.38 149.61,134.06 149.75,133.95 C149.89,133.84 150.34,133.64 150.75,133.51 C154.00,132.48 158.00,130.42 158.00,129.78 C158.00,129.35 158.40,129.00 158.88,129.00 C159.96,129.00 168.41,120.81 168.46,119.71 C168.48,119.28 169.18,118.50 170.00,117.98 C170.82,117.46 171.05,117.02 170.50,117.00 C169.95,116.98 170.16,116.55 170.97,116.04 C172.20,115.26 172.12,115.00 170.47,114.43 C170.08,114.30 169.64,114.13 169.15,113.94 C169.56,113.73 170.10,113.07 170.64,112.20 C170.31,113.20 170.92,114.00 172.23,114.00 C172.72,114.00 172.84,113.55 172.50,113.00 C172.16,112.45 172.39,112.00 173.00,112.00 C173.61,112.00 173.86,111.58 173.54,111.07 C173.23,110.56 173.40,109.87 173.92,109.55 C174.44,109.23 174.86,108.18 174.86,107.23 C174.85,106.28 175.01,102.21 175.23,98.19 C175.44,94.17 175.22,90.64 174.74,90.34 C174.26,90.04 174.09,89.21 174.36,88.50 C174.64,87.78 174.56,86.89 174.18,86.51 C173.81,86.14 173.50,85.50 173.50,85.09 C173.50,83.66 169.49,76.49 168.25,75.70 C167.56,75.26 167.00,74.33 167.00,73.62 C167.00,72.03 162.57,67.77 161.76,68.58 C161.43,68.90 160.65,68.22 160.03,67.06 C158.80,64.75 156.74,65.16 157.65,67.53 C157.96,68.33 158.56,68.77 159.00,68.50 C159.42,68.24 161.25,69.85 163.72,72.57 C161.54,70.72 157.25,67.84 153.74,65.80 C155.90,66.74 157.00,66.46 157.00,64.95 C157.00,64.22 153.11,62.70 151.75,62.89 C151.34,62.95 151.00,62.52 151.00,61.94 C151.00,61.36 150.55,61.16 150.00,61.50 C149.45,61.84 148.45,61.78 147.77,61.36 C144.38,59.26 131.79,59.31 126.83,61.44 C125.91,61.83 124.56,62.28 123.83,62.43 C121.14,62.98 118.44,64.45 116.01,66.70 C114.64,67.96 112.94,69.00 112.23,69.00 C111.51,69.00 110.00,70.57 108.87,72.50 C107.73,74.43 106.40,76.00 105.90,76.00 C105.41,76.00 105.09,76.34 105.21,76.75 C105.32,77.16 104.55,79.07 103.50,81.00 C102.44,82.93 101.51,84.84 101.42,85.25 C101.33,85.66 101.16,86.11 101.04,86.25 C99.94,87.58 99.40,103.22 100.41,104.85 C100.84,105.55 100.95,106.39 100.64,106.69 C100.33,107.00 100.72,108.49 101.50,110.00 C102.28,111.51 102.64,113.03 102.29,113.37 C101.95,113.72 102.27,114.00 103.00,114.00 C103.73,114.00 104.07,114.26 103.75,114.58 C103.43,114.91 103.91,116.05 104.83,117.12 C105.75,118.19 106.53,119.39 106.56,119.78 C106.65,120.97 114.84,129.00 115.96,129.00 C116.53,129.00 117.00,129.54 117.00,130.20 C117.00,131.12 117.28,131.12 118.17,130.23 C119.07,129.33 118.70,128.56 116.64,126.93 ZM 2.48 70.75 C3.17,62.43 3.63,58.61 4.00,58.25 C4.14,58.11 4.31,57.59 4.38,57.08 C4.44,56.58 4.81,55.86 5.18,55.49 C5.56,55.11 5.62,54.17 5.32,53.40 C5.03,52.63 5.31,52.00 5.95,52.00 C6.59,52.00 6.86,51.58 6.54,51.07 C6.23,50.56 6.43,49.85 7.00,49.50 C7.57,49.15 7.77,48.44 7.46,47.93 C7.14,47.42 7.39,47.00 8.00,47.00 C8.61,47.00 8.84,46.55 8.50,46.00 C8.16,45.45 8.39,45.00 9.00,45.00 C9.61,45.00 9.84,44.55 9.50,44.00 C9.16,43.45 9.39,43.00 10.00,43.00 C10.61,43.00 10.87,42.60 10.56,42.10 C10.26,41.61 11.12,40.14 12.49,38.85 C13.85,37.56 14.97,36.18 14.98,35.80 C15.01,34.71 24.61,25.36 26.40,24.68 C28.21,23.98 28.50,22.43 27.00,21.50 C26.94,21.47 26.89,21.44 26.84,21.41 C27.73,20.60 28.81,20.00 29.49,20.00 C29.65,20.00 29.80,19.99 29.94,19.96 C28.82,21.04 28.23,22.03 28.81,22.38 C29.37,22.73 29.98,22.67 30.16,22.26 C30.64,21.18 41.00,15.74 41.00,16.56 C41.00,16.94 41.63,16.72 42.39,16.09 C43.16,15.45 44.17,15.00 44.64,15.08 C45.12,15.17 45.72,15.13 46.00,15.01 C48.60,13.82 60.48,13.39 66.00,14.28 C74.86,15.71 76.58,16.57 72.62,17.56 C71.18,17.92 70.00,18.62 70.00,19.11 C70.00,19.60 69.53,20.00 68.96,20.00 C68.39,20.00 66.95,20.90 65.77,22.00 C64.59,23.10 63.03,24.00 62.31,24.00 C61.59,24.00 61.00,24.45 61.00,25.00 C61.00,25.55 60.37,26.00 59.61,26.00 C58.84,26.00 57.95,26.67 57.64,27.50 C57.32,28.33 56.42,29.00 55.64,29.00 C54.85,29.00 53.95,29.67 53.64,30.50 C53.32,31.33 52.54,32.00 51.90,32.00 C51.25,32.00 49.69,33.01 48.42,34.25 C47.16,35.49 44.85,37.74 43.30,39.25 C41.75,40.76 40.11,42.00 39.67,42.00 C38.22,42.00 13.82,65.87 7.64,73.34 C5.52,75.90 3.36,78.00 2.83,78.00 C2.26,78.00 2.12,75.10 2.48,70.75 ZM 94.39 17.93 C94.45,10.69 94.95,4.65 95.52,4.08 C96.08,3.52 97.66,2.93 99.02,2.78 C101.00,2.56 101.44,2.90 101.21,4.50 C100.16,11.79 99.76,16.34 99.64,22.42 C99.51,28.99 99.37,29.38 96.89,30.05 L 94.27 30.75 ZM 95.56 37.09 C95.17,36.47 94.47,36.21 94.00,36.50 C93.53,36.79 92.84,36.56 92.48,35.98 C92.13,35.39 91.01,35.18 90.00,35.50 C88.51,35.97 88.22,35.60 88.45,33.54 C88.60,32.14 88.27,31.00 87.71,31.00 C87.15,31.00 87.73,30.10 89.00,29.00 C91.94,26.45 93.31,26.45 92.50,29.00 C91.80,31.21 92.36,31.53 98.37,32.37 C102.20,32.91 102.23,32.89 101.64,29.96 C101.21,27.79 101.43,27.00 102.47,27.00 C103.24,27.00 104.16,27.46 104.51,28.02 C104.86,28.58 105.56,28.77 106.08,28.45 C108.01,27.26 108.33,31.29 106.41,32.69 C105.36,33.46 104.72,34.40 105.00,34.79 C105.28,35.18 103.71,35.65 101.51,35.82 C99.32,36.00 97.24,36.61 96.89,37.18 C96.46,37.87 96.02,37.84 95.56,37.09 ZM 53.58 71.00 C54.36,71.00 55.00,70.54 55.00,69.97 C55.00,69.40 55.79,68.65 56.75,68.30 C59.22,67.41 64.98,61.76 64.99,60.22 C65.00,59.51 65.67,58.68 66.49,58.36 C67.32,58.05 67.78,57.46 67.53,57.05 C67.28,56.64 67.93,55.38 68.97,54.26 C70.02,53.13 70.61,51.94 70.27,51.61 C69.18,50.51 68.00,50.97 68.00,52.50 C68.00,53.33 67.52,54.00 66.94,54.00 C66.36,54.00 66.16,54.45 66.50,55.01 C66.85,55.56 66.42,56.28 65.56,56.61 C64.70,56.94 64.00,57.63 64.00,58.14 C64.00,59.18 56.61,66.48 52.62,69.38 C51.20,70.41 50.34,71.74 50.70,72.33 C51.16,73.07 51.49,73.03 51.77,72.20 C51.99,71.54 52.80,71.00 53.58,71.00 ZM 52.67 84.50 C52.67,83.68 51.92,83.00 51.00,83.00 C50.08,83.00 49.33,83.68 49.33,84.50 C49.33,85.32 50.08,86.00 51.00,86.00 C51.92,86.00 52.67,85.32 52.67,84.50 ZM 86.99 109.97 C86.39,108.86 85.47,108.21 84.95,108.53 C83.45,109.46 83.84,110.81 85.75,111.31 C86.71,111.56 87.63,111.82 87.79,111.88 C87.94,111.95 87.58,111.09 86.99,109.97 ZM 83.95 123.10 C84.81,121.48 84.67,121.27 82.98,121.71 C80.95,122.25 80.49,123.16 81.67,124.33 C82.64,125.30 82.82,125.20 83.95,123.10 ZM 61.73 104.69 C61.09,102.78 59.27,102.87 58.75,104.83 C58.36,106.33 58.67,106.64 60.17,106.25 C61.22,105.97 61.92,105.27 61.73,104.69 ZM 66.25 90.65 C66.11,90.29 66.00,89.49 66.00,88.88 C66.00,88.10 65.54,88.14 64.50,89.00 C62.49,90.67 62.60,91.88 64.75,91.57 C65.71,91.42 66.39,91.01 66.25,90.65 ZM 167.40 116.59 C167.40,116.61 167.41,116.63 167.42,116.64 C168.09,118.41 166.79,120.09 160.18,126.00 C158.87,127.17 155.68,128.82 152.22,130.30 C156.39,128.27 160.49,125.56 163.23,122.82 C165.85,120.20 167.28,117.99 167.40,116.59 ZM 81.00 64.50 C81.00,63.67 80.58,63.00 80.06,63.00 C78.80,63.00 77.89,64.56 78.69,65.36 C79.82,66.49 81.00,66.05 81.00,64.50 ZM 81.00 80.50 C81.00,79.68 80.58,79.00 80.06,79.00 C78.80,79.00 77.89,80.56 78.69,81.36 C79.82,82.49 81.00,82.05 81.00,80.50 ZM 112.15 71.49 C111.49,72.21 110.74,73.14 110.01,74.15 C107.70,77.34 107.26,78.61 108.12,79.65 C108.38,79.96 108.71,80.24 109.06,80.47 C107.76,79.94 106.73,79.38 106.53,79.05 C106.09,78.33 109.38,74.22 112.15,71.49 ZM 77.00 97.50 C77.00,96.68 76.55,96.00 76.00,96.00 C75.45,96.00 75.00,96.68 75.00,97.50 C75.00,98.32 75.45,99.00 76.00,99.00 C76.55,99.00 77.00,98.32 77.00,97.50 ZM 93.23 3.40 C93.27,3.17 93.30,2.96 93.34,2.75 L 93.72 0.61 C96.75,0.70 98.16,0.80 97.50,0.90 C94.86,1.30 93.78,1.65 93.23,3.40 ZM 159.46 57.65 C161.93,58.87 164.44,60.62 166.84,62.71 C166.23,62.26 165.73,62.00 165.42,62.00 C164.69,62.00 163.74,61.38 163.30,60.62 C162.92,59.97 161.29,58.72 159.46,57.65 ZM 100.77 134.00 C100.16,134.00 99.52,134.00 98.82,134.00 C93.46,134.00 87.81,133.43 83.16,132.50 C86.74,133.17 91.35,133.55 98.29,133.87 C99.13,133.91 99.96,133.96 100.77,134.00 ZM 123.98 25.82 C117.55,23.23 109.91,21.24 104.12,21.07 C110.78,21.27 117.56,22.95 123.98,25.82 ZM 120.56 66.07 C119.12,66.85 117.75,67.64 116.90,68.21 C117.12,67.96 117.30,67.67 117.42,67.36 C117.76,66.45 118.32,65.99 118.65,66.32 C118.86,66.53 119.60,66.41 120.56,66.07 ZM 15.86 31.37 C15.09,32.29 14.58,33.01 14.56,33.33 C14.53,33.79 13.60,34.82 12.50,35.62 C12.11,35.91 11.76,36.21 11.48,36.51 C12.38,35.26 14.04,33.34 15.86,31.37 ZM 148.52 45.31 C148.37,45.21 148.20,45.11 148.03,45.01 C146.91,44.42 146.00,43.36 146.00,42.66 C146.00,42.47 145.91,42.22 145.75,41.92 C146.71,43.02 147.64,44.15 148.52,45.31 ZM 51.86 113.59 C50.15,111.82 48.68,110.16 47.81,108.97 C47.88,108.99 47.96,109.00 48.03,109.00 C48.60,109.00 49.36,109.78 49.72,110.73 C49.93,111.27 50.75,112.35 51.86,113.59 ZM 41.84 13.89 C43.17,13.37 44.34,13.04 44.69,13.10 C45.14,13.17 45.72,13.14 46.00,13.01 C47.31,12.43 50.89,12.04 54.83,11.91 C51.02,12.21 46.50,12.75 46.50,12.96 C46.50,13.06 45.23,13.30 43.68,13.51 C43.07,13.59 42.43,13.72 41.84,13.89 ZM 138.85 35.17 C138.61,35.06 138.41,35.00 138.25,35.00 C137.62,35.00 136.74,34.39 136.30,33.65 C136.06,33.25 135.73,32.83 135.33,32.41 C136.53,33.29 137.71,34.21 138.85,35.17 ZM 0.08 69.42 C0.13,68.25 0.36,68.01 0.68,68.81 C0.97,69.53 0.94,70.40 0.60,70.73 C0.27,71.06 0.04,70.47 0.08,69.42 ZM 10.74 37.73 C10.75,37.75 10.75,37.77 10.76,37.79 C10.90,38.18 10.37,39.25 9.59,40.17 C8.81,41.08 8.43,42.09 8.75,42.42 C9.07,42.74 8.78,43.00 8.11,43.00 C7.98,43.00 7.87,43.02 7.77,43.04 C8.94,41.10 10.19,38.86 10.74,37.73 ZM 114.45 136.84 C112.39,135.83 110.90,135.18 109.40,134.76 C111.37,135.01 112.63,135.28 112.79,135.51 C113.06,135.88 113.64,136.34 114.45,136.84 ZM 4.87 49.60 C4.76,50.06 4.62,50.70 4.50,51.33 C4.39,51.93 4.17,52.73 3.93,53.47 C3.97,53.12 4.00,52.75 4.00,52.39 C4.00,51.25 4.38,50.07 4.87,49.60 ZM 161.87 136.15 C161.95,136.04 162.00,135.95 162.00,135.86 C162.00,135.39 162.52,135.00 163.17,135.00 C163.35,135.00 163.59,134.94 163.87,134.82 C163.22,135.28 162.55,135.73 161.87,136.15 ZM 116.06 68.86 C115.34,69.50 114.41,70.00 113.93,70.00 C113.86,70.00 113.77,70.04 113.65,70.11 C114.46,69.43 115.12,69.00 115.48,69.00 C115.67,69.00 115.86,68.95 116.06,68.86 ZM 7.37 43.71 C7.40,43.80 7.44,43.90 7.50,44.00 C7.84,44.55 7.61,45.00 7.00,45.00 C6.85,45.00 6.72,45.03 6.61,45.08 C6.84,44.64 7.10,44.18 7.37,43.71 ZM 6.35 45.61 C6.37,45.73 6.42,45.86 6.50,46.00 C6.84,46.55 6.64,47.00 6.06,47.00 C5.95,47.00 5.84,47.01 5.75,47.04 C5.88,46.63 6.09,46.15 6.35,45.61 ZM 164.46 111.80 C162.16,110.66 159.71,109.36 157.66,108.19 C159.34,108.99 161.90,110.34 163.91,111.48 C164.09,111.59 164.28,111.69 164.46,111.80 ZM 121.01 86.94 C121.98,87.60 123.44,88.38 124.75,88.91 C125.22,89.10 125.66,89.31 126.06,89.51 C125.59,89.29 125.06,89.07 124.50,88.86 C122.68,88.20 121.17,87.37 121.01,86.94 ZM 168.27 131.32 C170.96,128.69 173.13,126.28 174.93,123.82 C172.98,126.56 170.76,129.07 168.27,131.32 ZM 35.99 16.32 C37.20,15.84 38.55,15.28 39.67,14.80 C39.03,15.30 37.39,15.98 35.99,16.32 ZM 3.11 55.58 C2.42,57.35 1.99,59.14 1.60,61.78 C2.17,57.90 2.53,56.36 3.11,55.58 ZM 171.11 111.36 C171.86,109.97 172.51,108.28 172.71,107.00 C172.74,106.79 172.77,106.56 172.80,106.32 C172.76,106.65 172.72,106.95 172.68,107.23 C172.46,108.73 171.77,110.57 171.15,111.32 C171.14,111.34 171.12,111.35 171.11,111.36 ZM 31.02 19.02 C31.18,18.55 32.35,17.79 33.82,17.18 C32.85,17.68 31.87,18.34 31.02,19.02 ZM 80.02 131.78 C78.04,131.26 76.37,130.67 75.15,130.03 C74.73,129.81 74.03,129.49 73.21,129.14 C74.13,129.52 74.97,129.87 75.50,130.12 C76.97,130.79 78.41,131.33 80.02,131.78 ZM 114.00 83.00 C114.67,83.58 115.44,84.11 116.11,84.47 C114.87,83.93 114.00,83.35 114.00,83.00 ZM 178.74 77.88 C179.66,79.72 180.40,81.54 180.91,83.31 C180.33,81.61 179.54,79.64 178.74,77.88 ZM 149.33 103.27 C148.20,102.82 146.88,102.02 146.22,101.36 C145.46,100.60 144.43,100.24 143.92,100.55 C144.43,100.24 145.44,100.57 146.17,101.28 C146.71,101.81 147.98,102.60 149.33,103.27 ZM 117.48 84.99 C117.52,85.00 117.55,85.00 117.58,85.00 C118.14,85.00 119.01,85.37 119.70,85.89 C119.10,85.59 118.33,85.27 117.50,85.00 ZM 23.75 24.00 C22.91,24.52 21.62,25.60 20.28,26.84 C21.99,25.18 23.37,24.01 23.75,24.00 ZM 166.12 75.34 C166.78,76.11 167.45,76.94 168.13,77.80 C168.42,78.16 168.51,78.48 168.35,78.81 C168.49,78.49 168.38,78.17 168.07,77.80 C167.67,77.32 166.92,76.37 166.12,75.34 ZM 154.00 105.89 C153.70,105.67 153.46,105.48 153.28,105.32 C153.08,105.14 152.82,104.94 152.52,104.74 C153.39,105.22 153.98,105.66 154.00,105.89 ZM 135.16 133.79 L 137.10 133.93 L 137.10 134.04 ZM 25.86 22.45 C25.64,22.86 25.18,23.29 24.61,23.58 C24.99,23.30 25.43,22.90 25.86,22.45 ZM 145.16 142.98 C146.51,142.75 148.27,142.26 150.15,141.63 C148.31,142.26 146.62,142.74 145.45,142.94 C144.66,143.07 144.31,143.18 144.40,143.29 C144.24,143.19 144.50,143.09 145.16,142.98 ZM 103.90 110.26 C103.91,110.13 103.38,108.33 102.71,106.26 C103.38,108.33 103.95,110.24 103.99,110.50 C104.02,110.75 104.27,111.53 104.56,112.30 C104.56,112.28 104.55,112.27 104.54,112.25 C104.17,111.29 103.88,110.39 103.90,110.26 ZM 110.50 81.00 C110.83,81.01 111.36,81.22 111.96,81.56 C111.52,81.36 111.03,81.17 110.51,81.00 ZM 107.13 113.98 C108.11,114.09 109.00,113.83 109.00,113.08 C109.00,113.88 108.12,114.13 107.13,113.98 ZM 173.08 95.17 C172.94,90.52 172.54,86.50 172.00,86.50 C172.55,86.50 172.94,90.50 173.08,95.17 ZM 127.25 63.23 C126.59,63.37 126.13,63.48 126.00,63.51 C125.90,63.53 125.77,63.57 125.63,63.62 C125.81,63.55 125.94,63.50 126.00,63.49 C126.34,63.42 126.77,63.33 127.25,63.23 Z" fill="rgb(64,175,104)"/>
<path d="M 167.40 116.59 C167.28,117.99 165.85,120.20 163.23,122.82 C160.49,125.56 156.39,128.27 152.22,130.30 C148.25,131.99 143.93,133.44 141.74,133.63 L 137.90 133.95 L 138.20 118.97 C138.39,109.46 138.14,104.00 137.50,104.00 C136.86,104.00 136.61,109.47 136.80,119.02 L 137.10 133.93 L 135.16 133.79 L 133.18 133.54 C131.71,133.36 129.88,132.99 128.43,132.61 C128.16,132.53 127.91,132.45 127.67,132.37 C125.63,131.67 123.73,130.87 121.93,129.96 C121.83,129.90 121.73,129.85 121.62,129.80 C118.02,127.94 114.84,125.59 111.72,122.56 C109.14,120.05 107.27,117.57 107.52,116.98 C107.95,116.38 109.62,115.22 111.31,114.35 C113.07,113.46 114.72,112.44 115.00,112.09 C115.28,111.74 116.62,110.88 118.00,110.18 C123.93,107.15 126.57,105.58 127.81,104.33 C128.54,103.60 129.79,103.00 130.57,103.00 C131.36,103.00 132.00,102.58 132.00,102.06 C132.00,100.12 130.18,100.11 127.98,102.02 C126.72,103.11 125.09,104.00 124.35,104.00 C123.61,104.00 123.00,104.42 123.00,104.92 C123.00,105.43 121.43,106.36 119.50,107.00 C117.57,107.64 116.00,108.54 116.00,109.00 C116.00,109.46 114.43,110.36 112.50,111.00 C110.57,111.64 109.00,112.57 109.00,113.08 C109.00,113.83 108.11,114.09 107.13,113.98 C106.09,113.81 104.94,113.20 104.56,112.30 C104.27,111.53 104.02,110.75 103.99,110.50 C103.95,110.24 103.38,108.33 102.71,106.26 C101.02,101.01 101.30,93.52 103.45,86.75 C105.42,80.52 106.46,79.93 110.00,83.00 C111.27,84.10 112.91,85.00 113.65,85.00 C114.39,85.00 115.00,85.42 115.00,85.92 C115.00,86.43 116.57,87.36 118.50,88.00 C120.43,88.64 122.00,89.54 122.00,90.00 C122.00,90.46 123.57,91.36 125.50,92.00 C127.43,92.64 129.00,93.57 129.00,94.08 C129.00,94.58 129.68,95.00 130.50,95.00 C132.71,95.00 132.32,92.90 130.00,92.29 C128.90,92.00 128.00,91.40 128.00,90.95 C128.00,90.63 127.21,90.06 126.06,89.51 L 126.06 89.51 C125.66,89.31 125.22,89.10 124.75,88.91 C123.44,88.38 121.98,87.60 121.01,86.94 C121.00,86.92 121.00,86.90 121.00,86.88 C121.00,86.65 120.49,86.28 119.70,85.89 C119.01,85.37 118.14,85.00 117.58,85.00 C117.55,85.00 117.52,85.00 117.48,84.99 C117.00,84.83 116.53,84.66 116.11,84.47 C115.44,84.11 114.67,83.58 114.00,83.00 C114.00,82.66 113.16,82.09 111.96,81.56 C111.36,81.22 110.83,81.01 110.50,81.00 C110.00,80.84 109.51,80.65 109.06,80.47 C108.71,80.24 108.38,79.96 108.12,79.65 C107.26,78.61 107.70,77.34 110.01,74.15 C110.74,73.14 111.49,72.21 112.15,71.49 C112.68,70.97 113.19,70.49 113.65,70.11 C113.77,70.04 113.86,70.00 113.93,70.00 C114.41,70.00 115.34,69.50 116.06,68.86 C116.36,68.72 116.65,68.49 116.90,68.21 C117.75,67.64 119.12,66.85 120.56,66.07 C121.11,65.87 121.74,65.59 122.38,65.25 C123.71,64.54 125.00,63.90 125.63,63.62 C125.77,63.57 125.90,63.53 126.00,63.51 C126.13,63.48 126.59,63.37 127.25,63.23 C128.06,63.05 129.02,62.84 130.00,62.62 L 130.00 62.62 C131.93,62.20 134.26,61.64 135.20,61.37 C136.74,60.94 136.90,62.27 136.92,75.70 C136.95,95.42 137.30,95.86 137.96,77.00 C138.47,62.29 138.60,61.51 140.50,61.63 C142.57,61.77 147.31,62.70 147.75,63.05 C147.89,63.16 148.34,63.33 148.75,63.42 C149.16,63.51 150.91,64.33 152.62,65.25 C153.02,65.47 153.39,65.65 153.74,65.80 C157.25,67.84 161.54,70.72 163.72,72.57 C164.47,73.40 165.28,74.33 166.12,75.34 C166.92,76.37 167.67,77.32 168.07,77.80 C168.38,78.17 168.49,78.49 168.35,78.81 C168.07,79.36 167.06,79.92 165.08,80.70 C162.84,81.58 161.00,82.65 161.00,83.07 C161.00,83.50 159.43,84.36 157.50,85.00 C155.57,85.64 154.00,86.57 154.00,87.08 C154.00,87.58 153.39,88.00 152.65,88.00 C151.91,88.00 150.27,88.90 149.00,90.00 C147.73,91.10 146.14,92.00 145.45,92.00 C144.77,92.00 143.95,92.68 143.64,93.50 C143.30,94.38 143.62,95.00 144.41,95.00 C145.15,95.00 146.32,94.32 147.00,93.50 C147.68,92.68 148.80,92.00 149.47,92.00 C150.14,92.00 151.73,91.10 153.00,90.00 C154.27,88.90 155.88,88.00 156.58,88.00 C157.28,88.00 158.45,87.43 159.18,86.74 C159.91,86.04 161.62,84.92 163.00,84.25 C164.38,83.57 166.28,82.46 167.22,81.78 C169.19,80.37 170.91,81.51 171.49,84.62 C171.69,85.65 171.92,86.50 172.00,86.50 C172.54,86.50 172.94,90.52 173.08,95.17 L 173.08 95.17 C173.19,99.07 173.12,103.44 172.80,106.32 C172.77,106.56 172.74,106.79 172.71,107.00 C172.51,108.28 171.86,109.97 171.11,111.36 C170.88,111.65 170.73,111.93 170.64,112.20 C170.10,113.07 169.56,113.73 169.15,113.94 C167.82,113.40 166.18,112.64 164.46,111.80 C164.28,111.69 164.09,111.59 163.91,111.48 C161.90,110.34 159.34,108.99 157.66,108.19 C156.15,107.31 154.85,106.51 154.00,105.89 C153.98,105.66 153.39,105.22 152.52,104.74 C151.73,104.23 150.66,103.71 149.79,103.43 C149.64,103.39 149.49,103.33 149.33,103.27 C147.98,102.60 146.71,101.81 146.17,101.28 C145.44,100.57 144.43,100.24 143.92,100.55 C142.54,101.40 142.81,103.00 144.35,103.00 C145.09,103.00 146.73,103.90 148.00,105.00 C149.27,106.10 150.84,107.00 151.50,107.00 C152.16,107.00 153.73,107.90 155.00,109.00 C156.27,110.10 157.84,111.00 158.50,111.00 C159.16,111.00 160.73,111.90 162.00,113.00 C163.27,114.10 164.86,115.00 165.55,115.00 C166.22,115.00 167.04,115.71 167.40,116.59 ZM 131.14 124.06 C132.30,122.63 132.71,120.41 132.55,116.28 C132.17,106.72 132.02,106.51 128.00,110.00 C126.73,111.10 125.16,112.00 124.50,112.00 C122.91,112.00 119.82,115.49 120.66,116.33 C121.03,116.70 120.90,117.00 120.38,117.00 C118.65,117.00 118.91,122.91 120.74,124.96 C122.96,127.47 128.75,126.97 131.14,124.06 ZM 153.09 82.88 C155.10,80.05 155.19,79.42 154.04,76.22 C153.33,74.28 151.25,71.19 149.41,69.35 C146.18,66.11 144.23,64.94 145.50,67.00 C145.84,67.55 145.61,68.00 145.00,68.00 C144.39,68.00 144.16,68.45 144.50,69.00 C144.84,69.55 144.61,70.00 144.00,70.00 C143.39,70.00 143.16,70.45 143.50,71.00 C143.84,71.55 143.64,72.00 143.06,72.00 C142.48,72.00 142.05,72.34 142.12,72.75 C142.18,73.16 142.15,73.72 142.05,74.00 C141.42,75.63 141.63,82.00 142.31,82.00 C142.75,82.00 142.84,82.45 142.49,83.01 C142.15,83.56 142.91,84.43 144.19,84.95 C148.46,86.66 150.78,86.12 153.09,82.88 ZM 144.31 82.36 C143.12,79.82 143.43,75.43 145.02,72.46 C146.56,69.59 148.78,69.25 149.73,71.75 C150.09,72.71 150.98,74.09 151.69,74.82 C153.14,76.29 153.39,79.83 152.18,81.73 C151.75,82.41 150.00,83.25 148.29,83.59 C145.86,84.08 144.99,83.81 144.31,82.36 ZM 122.59 123.45 C121.72,122.57 121.00,121.40 121.00,120.83 C121.00,118.95 124.42,114.00 125.72,114.00 C126.42,114.00 127.00,113.55 127.00,113.00 C127.00,112.45 127.83,112.00 128.84,112.00 C130.40,112.00 130.67,112.76 130.57,116.84 C130.41,123.61 126.22,127.08 122.59,123.45 Z" fill="rgb(172,227,124)"/>
<path d="M 0.00 113.65 L 0.00 83.30 L 13.25 82.69 C20.54,82.35 28.98,81.39 32.00,80.55 C35.03,79.71 37.54,79.02 37.58,79.01 C37.63,79.01 37.69,79.56 37.73,80.25 C37.91,83.88 39.32,90.63 40.43,93.17 C40.83,94.09 41.27,95.44 41.41,96.17 C41.80,98.25 45.42,105.46 46.25,105.83 C46.66,106.02 47.00,106.73 47.00,107.43 C47.00,109.42 60.92,123.00 62.96,123.00 C63.53,123.00 64.00,123.45 64.00,124.00 C64.00,124.55 64.68,125.00 65.50,125.00 C66.32,125.00 67.00,125.40 67.00,125.88 C67.00,126.36 68.46,127.30 70.25,127.96 C72.04,128.62 74.24,129.56 75.15,130.03 C79.51,132.31 89.60,134.00 98.82,134.00 C108.53,134.00 109.11,134.13 116.72,137.98 C121.05,140.17 127.04,142.36 130.04,142.86 C133.60,143.45 111.91,143.81 67.75,143.88 L 0.00 144.00 L 0.00 113.65 ZM 145.45 142.94 C148.17,142.48 153.58,140.53 157.48,138.61 C168.81,133.01 177.00,123.65 181.20,111.51 L 182.93 106.50 L 182.97 125.25 L 183.00 144.00 L 161.75 143.88 C146.86,143.80 141.98,143.52 145.45,142.94 ZM 181.10 84.02 C178.56,74.10 168.45,61.91 159.07,57.46 C156.28,56.13 154.10,54.04 152.32,51.00 C142.24,33.75 122.71,21.63 104.12,21.07 C101.75,21.00 101.74,20.98 102.54,12.75 C102.98,8.21 103.38,3.49 103.42,2.25 L 103.50 0.00 L 143.25 0.00 L 183.00 0.00 L 183.00 44.50 C183.00,68.97 182.86,89.00 182.69,89.00 C182.52,89.00 181.80,86.76 181.10,84.02 ZM 0.00 32.67 L 0.00 0.00 L 46.91 0.00 L 93.82 0.00 L 93.34 2.75 C93.08,4.26 92.78,6.51 92.68,7.75 C92.58,8.99 92.28,10.03 92.00,10.07 C91.72,10.11 90.29,10.30 88.81,10.49 C87.33,10.69 84.53,11.61 82.58,12.53 C79.05,14.20 76.82,14.18 66.00,12.36 C60.57,11.45 48.64,11.84 46.00,13.01 C45.72,13.14 45.14,13.17 44.69,13.10 C44.25,13.02 42.45,13.59 40.69,14.36 C38.94,15.13 36.04,16.32 34.25,17.00 C32.46,17.69 31.00,18.64 31.00,19.12 C31.00,19.60 30.32,20.00 29.49,20.00 C28.66,20.00 27.21,20.90 26.27,22.00 C25.33,23.10 24.20,24.00 23.76,24.00 C22.59,24.00 11.95,35.14 10.85,37.50 C10.34,38.60 8.85,41.28 7.53,43.45 C6.21,45.62 5.33,47.73 5.58,48.13 C5.83,48.53 5.58,49.14 5.02,49.49 C4.46,49.84 4.00,51.14 4.00,52.39 C4.00,53.64 3.69,54.98 3.30,55.36 C2.61,56.06 2.23,57.49 1.60,61.78 C0.45,69.64 0.00,61.41 0.00,32.67 ZM 79.00 19.55 C79.00,16.14 79.12,16.04 85.65,14.03 C89.31,12.90 92.40,12.09 92.52,12.24 C92.65,12.38 92.47,14.52 92.12,17.00 C91.58,20.90 91.17,21.52 89.00,21.67 C87.62,21.76 84.81,22.10 82.75,22.43 C79.02,23.02 79.00,23.00 79.00,19.55 Z" fill="rgb(253,254,254)"/>
</g>
</svg>