<?xml version="1.0" encoding="UTF-8"?>
<!DOCTYPE svg PUBLIC "-//W3C//DTD SVG 1.1//EN" "http://www.w3.org/Graphics/SVG/1.1/DTD/svg11.dtd">
<svg xmlns="http://www.w3.org/2000/svg" version="1.1" width="183px" height="144px" style="shape-rendering:geometricPrecision; text-rendering:geometricPrecision; image-rendering:optimizeQuality; fill-rule:evenodd; clip-rule:evenodd" xmlns:xlink="http://www.w3.org/1999/xlink">
<g><path style="opacity:1" fill="#36777c" d="M 99.5,13.5 C 99.5,14.1667 99.5,14.8333 99.5,15.5C 98.5139,19.97 98.1805,24.6367 98.5,29.5C 97.1667,29.5 95.8333,29.5 94.5,29.5C 94.7845,27.5853 94.4511,25.9187 93.5,24.5C 93.5,23.8333 93.5,23.1667 93.5,22.5C 93.2803,15.4567 93.6136,8.4567 94.5,1.5C 96.5,1.5 98.5,1.5 100.5,1.5C 100.605,5.5483 100.272,9.5483 99.5,13.5 Z"/></g>
<g><path style="opacity:1" fill="#39b566" d="M 53.5,29.5 C 44.5844,36.4055 35.9177,43.7388 27.5,51.5C 19.1391,60.1932 10.8057,68.8599 2.5,77.5C 1.51998,74.9135 1.18665,72.2469 1.5,69.5C 3.70738,46.2381 15.0407,29.0715 35.5,18C 47.9571,12.967 60.6238,12.3003 73.5,16C 66.3827,19.9715 59.716,24.4715 53.5,29.5 Z"/></g>
<g><path style="opacity:1" fill="#4d4d4d" d="M 87.5,10.5 C 88.209,11.404 89.209,11.7373 90.5,11.5C 86.9428,12.8001 83.2761,14.1334 79.5,15.5C 79.1667,16.6667 78.8333,17.8333 78.5,19C 78.6083,20.6811 79.2749,21.8478 80.5,22.5C 79.791,23.404 78.791,23.7373 77.5,23.5C 77.8134,20.7531 77.48,18.0865 76.5,15.5C 75.6043,14.4937 74.9377,14.4937 74.5,15.5C 76.3122,18.8989 76.9789,22.5656 76.5,26.5C 76.1667,26.5 75.8333,26.5 75.5,26.5C 75.6646,23.4816 75.498,20.4816 75,17.5C 68.2133,21.4714 61.7133,25.8048 55.5,30.5C 55.1583,29.6618 54.4916,29.3284 53.5,29.5C 59.716,24.4715 66.3827,19.9715 73.5,16C 60.6238,12.3003 47.9571,12.967 35.5,18C 15.0407,29.0715 3.70738,46.2381 1.5,69.5C 1.79472,67.2646 1.46138,65.2646 0.5,63.5C 6.26292,31.9038 25.0962,14.2372 57,10.5C 63.3896,11.1735 69.7229,12.1735 76,13.5C 79.8026,12.3994 83.6359,11.3994 87.5,10.5 Z"/></g>
<g><path style="opacity:1" fill="#060606" d="M 80.5,22.5 C 80.8333,22.5 81.1667,22.5 81.5,22.5C 83.099,22.2322 84.4324,22.5655 85.5,23.5C 83.0733,23.523 80.74,24.023 78.5,25C 77.6198,26.3561 77.2865,27.8561 77.5,29.5C 76.596,28.791 76.2627,27.791 76.5,26.5C 76.9789,22.5656 76.3122,18.8989 74.5,15.5C 74.9377,14.4937 75.6043,14.4937 76.5,15.5C 77.48,18.0865 77.8134,20.7531 77.5,23.5C 78.791,23.7373 79.791,23.404 80.5,22.5 Z"/></g>
<g><path style="opacity:1" fill="#404040" d="M 93.5,-0.5 C 96.5,-0.5 99.5,-0.5 102.5,-0.5C 102.923,0.264561 103.257,1.09789 103.5,2C 102.217,8.09635 101.551,14.263 101.5,20.5C 100.833,18.1667 100.167,15.8333 99.5,13.5C 100.272,9.5483 100.605,5.5483 100.5,1.5C 98.5,1.5 96.5,1.5 94.5,1.5C 93.6136,8.4567 93.2803,15.4567 93.5,22.5C 92.8999,23.9002 91.8999,24.9002 90.5,25.5C 91.3029,24.5768 91.4696,23.5768 91,22.5C 89.3005,23.4061 87.4672,23.7394 85.5,23.5C 84.4324,22.5655 83.099,22.2322 81.5,22.5C 84.5885,21.2154 87.9219,20.5488 91.5,20.5C 91.81,17.2869 91.4767,14.2869 90.5,11.5C 89.209,11.7373 88.209,11.404 87.5,10.5C 88.5676,9.56552 89.901,9.23219 91.5,9.5C 91.7878,6.06111 92.4544,2.72778 93.5,-0.5 Z"/></g>
<g><path style="opacity:1" fill="#171717" d="M 99.5,13.5 C 100.167,15.8333 100.833,18.1667 101.5,20.5C 102.167,20.5 102.833,20.5 103.5,20.5C 102.791,21.404 101.791,21.7373 100.5,21.5C 100.5,22.8333 100.5,24.1667 100.5,25.5C 101.5,25.5 102.5,25.5 103.5,25.5C 107.984,25.2887 109.817,27.2887 109,31.5C 107.471,32.7287 106.304,34.2287 105.5,36C 101.78,36.1921 98.28,37.0254 95,38.5C 92.2367,38.0823 89.57,37.4156 87,36.5C 86.7882,33.7478 85.9548,31.2478 84.5,29C 85.8962,26.7651 87.8962,25.5985 90.5,25.5C 91.8999,24.9002 92.8999,23.9002 93.5,22.5C 93.5,23.1667 93.5,23.8333 93.5,24.5C 93.5,26.5 93.5,28.5 93.5,30.5C 95.5,30.5 97.5,30.5 99.5,30.5C 99.5,25.5 99.5,20.5 99.5,15.5C 99.5,14.8333 99.5,14.1667 99.5,13.5 Z"/></g>
<g><path style="opacity:1" fill="#37b566" d="M 75.5,26.5 C 73.0971,49.9475 61.0971,66.1142 39.5,75C 32.3995,77.657 25.0662,79.157 17.5,79.5C 12.9677,79.8182 8.63441,79.4849 4.5,78.5C 20.2137,61.1192 37.2137,45.1192 55.5,30.5C 61.7133,25.8048 68.2133,21.4714 75,17.5C 75.498,20.4816 75.6646,23.4816 75.5,26.5 Z"/></g>
<g><path style="opacity:1" fill="#b6b6b6" d="M 99.5,15.5 C 99.5,20.5 99.5,25.5 99.5,30.5C 97.5,30.5 95.5,30.5 93.5,30.5C 93.5,28.5 93.5,26.5 93.5,24.5C 94.4511,25.9187 94.7845,27.5853 94.5,29.5C 95.8333,29.5 97.1667,29.5 98.5,29.5C 98.1805,24.6367 98.5139,19.97 99.5,15.5 Z"/></g>
<g><path style="opacity:1" fill="#38b566" d="M 90.5,25.5 C 87.8962,25.5985 85.8962,26.7651 84.5,29C 85.9548,31.2478 86.7882,33.7478 87,36.5C 89.57,37.4156 92.2367,38.0823 95,38.5C 98.28,37.0254 101.78,36.1921 105.5,36C 106.304,34.2287 107.471,32.7287 109,31.5C 109.817,27.2887 107.984,25.2887 103.5,25.5C 102.909,24.8485 102.243,24.1818 101.5,23.5C 122.581,24.0431 138.581,33.3764 149.5,51.5C 148.675,52.3857 147.675,52.719 146.5,52.5C 140.469,51.2071 134.469,51.2071 128.5,52.5C 122.439,53.5265 116.772,55.6931 111.5,59C 89.7631,76.7713 85.5964,97.938 99,122.5C 101.128,125.63 103.628,128.463 106.5,131C 84.847,133.821 66.6803,127.321 52,111.5C 45.0512,102.272 40.8845,91.9384 39.5,80.5C 39.6858,78.4205 40.6858,76.9205 42.5,76C 62.7302,66.9375 74.3969,51.4375 77.5,29.5C 77.2865,27.8561 77.6198,26.3561 78.5,25C 80.74,24.023 83.0733,23.523 85.5,23.5C 87.4672,23.7394 89.3005,23.4061 91,22.5C 91.4696,23.5768 91.3029,24.5768 90.5,25.5 Z"/></g>
<g><path style="opacity:1" fill="#2e2e2e" d="M 53.5,29.5 C 54.4916,29.3284 55.1583,29.6618 55.5,30.5C 37.2137,45.1192 20.2137,61.1192 4.5,78.5C 3.71087,78.7828 3.0442,79.2828 2.5,80C 7.48892,80.4993 12.4889,80.6659 17.5,80.5C 19.099,80.2322 20.4324,80.5655 21.5,81.5C 14.2229,82.4304 6.8896,82.7637 -0.5,82.5C -0.5,76.5 -0.5,70.5 -0.5,64.5C 0.166667,64.5 0.5,64.1667 0.5,63.5C 1.46138,65.2646 1.79472,67.2646 1.5,69.5C 1.18665,72.2469 1.51998,74.9135 2.5,77.5C 10.8057,68.8599 19.1391,60.1932 27.5,51.5C 35.9177,43.7388 44.5844,36.4055 53.5,29.5 Z"/></g>
<g><path style="opacity:1" fill="#454545" d="M 103.5,20.5 C 126.401,22.9133 143.234,34.2466 154,54.5C 169.18,61.1719 178.68,72.5052 182.5,88.5C 182.5,94.5 182.5,100.5 182.5,106.5C 176.028,127.301 162.028,139.634 140.5,143.5C 138.167,143.5 135.833,143.5 133.5,143.5C 124.88,142.231 116.88,139.064 109.5,134C 82.223,137.037 60.723,127.537 45,105.5C 39.9753,97.1279 37.4753,88.2946 37.5,79C 32.3247,80.2646 26.9914,81.0979 21.5,81.5C 20.4324,80.5655 19.099,80.2322 17.5,80.5C 17.5,80.1667 17.5,79.8333 17.5,79.5C 25.0662,79.157 32.3995,77.657 39.5,75C 61.0971,66.1142 73.0971,49.9475 75.5,26.5C 75.8333,26.5 76.1667,26.5 76.5,26.5C 76.2627,27.791 76.596,28.791 77.5,29.5C 74.3969,51.4375 62.7302,66.9375 42.5,76C 40.6858,76.9205 39.6858,78.4205 39.5,80.5C 40.8845,91.9384 45.0512,102.272 52,111.5C 66.6803,127.321 84.847,133.821 106.5,131C 103.628,128.463 101.128,125.63 99,122.5C 85.5964,97.938 89.7631,76.7713 111.5,59C 116.772,55.6931 122.439,53.5265 128.5,52.5C 130.948,53.4731 133.615,53.8064 136.5,53.5C 110.314,56.1864 95.9806,70.6864 93.5,97C 97.7712,129.62 116.105,143.62 148.5,139C 168.409,132.369 179.076,118.535 180.5,97.5C 179.088,75.1097 167.755,60.7764 146.5,54.5C 147.552,54.6495 148.552,54.4828 149.5,54C 148.263,53.7679 147.263,53.2679 146.5,52.5C 147.675,52.719 148.675,52.3857 149.5,51.5C 138.581,33.3764 122.581,24.0431 101.5,23.5C 102.243,24.1818 102.909,24.8485 103.5,25.5C 102.5,25.5 101.5,25.5 100.5,25.5C 100.5,24.1667 100.5,22.8333 100.5,21.5C 101.791,21.7373 102.791,21.404 103.5,20.5 Z"/></g>
<g><path style="opacity:1" fill="#3e3e3e" d="M 63.5,72.5 C 64.5,72.5 65.5,72.5 66.5,72.5C 66.5,73.5 66.5,74.5 66.5,75.5C 65.5,75.5 64.5,75.5 63.5,75.5C 63.5,74.5 63.5,73.5 63.5,72.5 Z"/></g>
<g><path style="opacity:1" fill="#232323" d="M 78.5,63.5 C 80.4646,63.9483 80.7979,64.9483 79.5,66.5C 78.6143,65.675 78.281,64.675 78.5,63.5 Z"/></g>
<g><path style="opacity:1" fill="#40b569" d="M 136.5,53.5 C 139.728,54.4137 143.061,54.7471 146.5,54.5C 167.755,60.7764 179.088,75.1097 180.5,97.5C 179.076,118.535 168.409,132.369 148.5,139C 116.105,143.62 97.7712,129.62 93.5,97C 95.9806,70.6864 110.314,56.1864 136.5,53.5 Z"/></g>
<g><path style="opacity:1" fill="#474747" d="M 127.5,60.5 C 128.791,60.2627 129.791,60.596 130.5,61.5C 120.452,64.0526 112.452,69.5526 106.5,78C 115.092,82.9002 123.425,88.0669 131.5,93.5C 130.635,94.5827 129.635,94.7494 128.5,94C 120.639,89.0755 112.639,84.7422 104.5,81C 100.521,91.83 100.521,102.663 104.5,113.5C 105.167,114.167 105.833,114.833 106.5,115.5C 112.645,125.742 121.645,131.742 133.5,133.5C 131.901,133.232 130.568,133.566 129.5,134.5C 115.608,131.779 106.108,123.779 101,110.5C 95.1642,91.0087 100.664,75.5087 117.5,64C 120.605,62.1319 123.938,60.9652 127.5,60.5 Z"/></g>
<g><path style="opacity:1" fill="#9a9a9a" d="M 142.5,59.5 C 144.099,59.2322 145.432,59.5655 146.5,60.5C 145.209,60.2627 144.209,60.596 143.5,61.5C 141.833,61.5 140.167,61.5 138.5,61.5C 138.827,71.3478 138.494,81.0144 137.5,90.5C 137.5,80.5 137.5,70.5 137.5,60.5C 139.415,60.7845 141.081,60.4511 142.5,59.5 Z"/></g>
<g><path style="opacity:1" fill="#aaaaaa" d="M 127.5,60.5 C 128.568,59.5655 129.901,59.2322 131.5,59.5C 132.919,60.4511 134.585,60.7845 136.5,60.5C 136.5,70.5 136.5,80.5 136.5,90.5C 135.506,81.0144 135.173,71.3478 135.5,61.5C 133.833,61.5 132.167,61.5 130.5,61.5C 129.791,60.596 128.791,60.2627 127.5,60.5 Z"/></g>
<g><path style="opacity:1" fill="#a2ec6b" d="M 130.5,61.5 C 132.167,61.5 133.833,61.5 135.5,61.5C 135.173,71.3478 135.506,81.0144 136.5,90.5C 136.833,90.5 137.167,90.5 137.5,90.5C 138.494,81.0144 138.827,71.3478 138.5,61.5C 140.167,61.5 141.833,61.5 143.5,61.5C 153.548,64.0526 161.548,69.5526 167.5,78C 158.795,82.6797 150.462,87.8464 142.5,93.5C 143.365,94.5827 144.365,94.7494 145.5,94C 153.167,89.5 160.833,85 168.5,80.5C 171.77,85.488 173.104,90.988 172.5,97C 172.506,101.236 172.006,105.402 171,109.5C 170.477,111.223 169.477,112.556 168,113.5C 159.736,108.953 151.569,104.286 143.5,99.5C 142.167,100.5 142.167,101.5 143.5,102.5C 151.5,107.167 159.5,111.833 167.5,116.5C 160.863,125.982 151.863,131.649 140.5,133.5C 138.848,123.867 137.848,113.867 137.5,103.5C 136.501,113.478 136.168,123.478 136.5,133.5C 135.5,133.5 134.5,133.5 133.5,133.5C 121.645,131.742 112.645,125.742 106.5,115.5C 114.765,111.7 122.765,107.367 130.5,102.5C 131.833,101.5 131.833,100.5 130.5,99.5C 122.055,104.72 113.388,109.387 104.5,113.5C 100.521,102.663 100.521,91.83 104.5,81C 112.639,84.7422 120.639,89.0755 128.5,94C 129.635,94.7494 130.635,94.5827 131.5,93.5C 123.425,88.0669 115.092,82.9002 106.5,78C 112.452,69.5526 120.452,64.0526 130.5,61.5 Z"/></g>
<g><path style="opacity:1" fill="#444444" d="M 144.5,65.5 C 151.15,68.3126 154.317,73.3126 154,80.5C 150.128,86.7561 145.795,87.0894 141,81.5C 140.333,79.1667 140.333,76.8333 141,74.5C 142.18,71.4788 143.346,68.4788 144.5,65.5 Z"/></g>
<g><path style="opacity:1" fill="#f4c678" d="M 145.5,69.5 C 151.127,71.5883 152.961,75.5883 151,81.5C 146.126,84.647 143.292,83.3137 142.5,77.5C 142.948,74.6087 143.948,71.942 145.5,69.5 Z"/></g>
<g><path style="opacity:1" fill="#000000" d="M 131.5,59.5 C 135.167,59.5 138.833,59.5 142.5,59.5C 141.081,60.4511 139.415,60.7845 137.5,60.5C 137.5,70.5 137.5,80.5 137.5,90.5C 137.167,90.5 136.833,90.5 136.5,90.5C 136.5,80.5 136.5,70.5 136.5,60.5C 134.585,60.7845 132.919,60.4511 131.5,59.5 Z"/></g>
<g><path style="opacity:1" fill="#3d3d3d" d="M 146.5,52.5 C 147.263,53.2679 148.263,53.7679 149.5,54C 148.552,54.4828 147.552,54.6495 146.5,54.5C 143.061,54.7471 139.728,54.4137 136.5,53.5C 133.615,53.8064 130.948,53.4731 128.5,52.5C 134.469,51.2071 140.469,51.2071 146.5,52.5 Z"/></g>
<g><path style="opacity:1" fill="#507c80" d="M 89.5,26.5 C 90.5,26.5 91.5,26.5 92.5,26.5C 92.5,28.1667 92.5,29.8333 92.5,31.5C 95.1667,31.5 97.8333,31.5 100.5,31.5C 100.5,29.8333 100.5,28.1667 100.5,26.5C 107.932,26.647 109.265,29.4804 104.5,35C 98.8476,36.5683 93.181,36.7349 87.5,35.5C 87.6816,33.4086 87.3482,31.4086 86.5,29.5C 87.3398,28.265 88.3398,27.265 89.5,26.5 Z"/></g>
<g><path style="opacity:1" fill="#c7c7c7" d="M 4.5,78.5 C 8.63441,79.4849 12.9677,79.8182 17.5,79.5C 17.5,79.8333 17.5,80.1667 17.5,80.5C 12.4889,80.6659 7.48892,80.4993 2.5,80C 3.0442,79.2828 3.71087,78.7828 4.5,78.5 Z"/></g>
<g><path style="opacity:1" fill="#242424" d="M 78.5,79.5 C 80.4646,79.9483 80.7979,80.9483 79.5,82.5C 78.6143,81.675 78.281,80.675 78.5,79.5 Z"/></g>
<g><path style="opacity:1" fill="#676767" d="M 48.5,82.5 C 49.8333,82.5 51.1667,82.5 52.5,82.5C 52.5,83.5 52.5,84.5 52.5,85.5C 51.1667,85.5 49.8333,85.5 48.5,85.5C 48.5,84.5 48.5,83.5 48.5,82.5 Z"/></g>
<g><path style="opacity:1" fill="#6a6a6a" d="M 62.5,88.5 C 63.5,88.5 64.5,88.5 65.5,88.5C 65.5,89.5 65.5,90.5 65.5,91.5C 64.5,91.5 63.5,91.5 62.5,91.5C 62.5,90.5 62.5,89.5 62.5,88.5 Z"/></g>
<g><path style="opacity:1" fill="#3c3c3c" d="M 109.5,90.5 C 113.457,90.0084 117.123,90.6751 120.5,92.5C 124.302,98.7664 122.635,102.433 115.5,103.5C 109.86,102.547 105.526,99.5474 102.5,94.5C 104.765,92.8726 107.099,91.5392 109.5,90.5 Z"/></g>
<g><path style="opacity:1" fill="#f5c779" d="M 109.5,92.5 C 112.941,92.3011 116.274,92.8011 119.5,94C 120.681,101.482 117.681,103.482 110.5,100C 108.981,98.6487 107.648,97.1487 106.5,95.5C 107.34,94.265 108.34,93.265 109.5,92.5 Z"/></g>
<g><path style="opacity:1" fill="#030403" d="M 74.5,95.5 C 76.337,95.6395 76.6704,96.3061 75.5,97.5C 74.7025,97.0431 74.3691,96.3764 74.5,95.5 Z"/></g>
<g><path style="opacity:1" fill="#494949" d="M 106.5,115.5 C 105.833,114.833 105.167,114.167 104.5,113.5C 113.388,109.387 122.055,104.72 130.5,99.5C 131.833,100.5 131.833,101.5 130.5,102.5C 122.765,107.367 114.765,111.7 106.5,115.5 Z"/></g>
<g><path style="opacity:1" fill="#383838" d="M 140.5,133.5 C 142.415,133.216 144.081,133.549 145.5,134.5C 140.067,135.802 134.734,135.802 129.5,134.5C 130.568,133.566 131.901,133.232 133.5,133.5C 134.5,133.5 135.5,133.5 136.5,133.5C 136.168,123.478 136.501,113.478 137.5,103.5C 137.848,113.867 138.848,123.867 140.5,133.5 Z"/></g>
<g><path style="opacity:1" fill="#5e5e5e" d="M 57.5,103.5 C 58.5,103.5 59.5,103.5 60.5,103.5C 60.5,104.5 60.5,105.5 60.5,106.5C 59.5,106.5 58.5,106.5 57.5,106.5C 57.5,105.5 57.5,104.5 57.5,103.5 Z"/></g>
<g><path style="opacity:1" fill="#0e0e0e" d="M 86.5,108.5 C 86.5,109.833 85.8333,110.5 84.5,110.5C 84.5,109.167 85.1667,108.5 86.5,108.5 Z"/></g>
<g><path style="opacity:1" fill="#939593" d="M 86.5,108.5 C 87.404,109.209 87.7373,110.209 87.5,111.5C 86.209,111.737 85.209,111.404 84.5,110.5C 85.8333,110.5 86.5,109.833 86.5,108.5 Z"/></g>
<g><path style="opacity:1" fill="#3f3f3f" d="M 69.5,110.5 C 70.5,110.5 71.5,110.5 72.5,110.5C 72.5,111.5 72.5,112.5 72.5,113.5C 71.5,113.5 70.5,113.5 69.5,113.5C 69.5,112.5 69.5,111.5 69.5,110.5 Z"/></g>
<g><path style="opacity:1" fill="#454545" d="M 143.5,61.5 C 144.209,60.596 145.209,60.2627 146.5,60.5C 167.464,67.0642 176.964,81.3975 175,103.5C 171.427,119.904 161.593,130.238 145.5,134.5C 144.081,133.549 142.415,133.216 140.5,133.5C 151.863,131.649 160.863,125.982 167.5,116.5C 159.5,111.833 151.5,107.167 143.5,102.5C 142.167,101.5 142.167,100.5 143.5,99.5C 151.569,104.286 159.736,108.953 168,113.5C 169.477,112.556 170.477,111.223 171,109.5C 172.006,105.402 172.506,101.236 172.5,97C 173.104,90.988 171.77,85.488 168.5,80.5C 160.833,85 153.167,89.5 145.5,94C 144.365,94.7494 143.365,94.5827 142.5,93.5C 150.462,87.8464 158.795,82.6797 167.5,78C 161.548,69.5526 153.548,64.0526 143.5,61.5 Z"/></g>
<g><path style="opacity:1" fill="#3c3c3c" d="M 129.5,107.5 C 130.931,107.881 131.764,108.881 132,110.5C 132.667,114.167 132.667,117.833 132,121.5C 128.331,127.168 123.997,127.835 119,123.5C 117.703,118.883 118.87,115.05 122.5,112C 125.239,110.974 127.572,109.474 129.5,107.5 Z"/></g>
<g><path style="opacity:1" fill="#f4c77a" d="M 127.5,111.5 C 128.496,111.414 129.329,111.748 130,112.5C 131.151,116.829 130.318,120.662 127.5,124C 122.502,125.33 120.336,123.496 121,118.5C 122.425,115.394 124.592,113.06 127.5,111.5 Z"/></g>
<g><path style="opacity:1" fill="#5a5a5a" d="M 81.5,120.5 C 82.5,120.5 83.5,120.5 84.5,120.5C 84.5,121.5 84.5,122.5 84.5,123.5C 83.5,123.5 82.5,123.5 81.5,123.5C 81.5,122.5 81.5,121.5 81.5,120.5 Z"/></g>
</svg>
