<?xml version="1.0" encoding="UTF-8"?>
<!DOCTYPE svg PUBLIC "-//W3C//DTD SVG 1.1//EN" "http://www.w3.org/Graphics/SVG/1.1/DTD/svg11.dtd">
<svg xmlns="http://www.w3.org/2000/svg" version="1.1" width="256px" height="217px" style="shape-rendering:geometricPrecision; text-rendering:geometricPrecision; image-rendering:optimizeQuality; fill-rule:evenodd; clip-rule:evenodd" xmlns:xlink="http://www.w3.org/1999/xlink">
<g><path style="opacity:1" fill="#3f4040" d="M 149.5,2.5 C 154.099,2.20001 158.599,2.53335 163,3.5C 162.779,11.2163 161.946,18.883 160.5,26.5C 160.559,29.2503 161.225,32.0837 162.5,35C 196.767,37.7319 222.934,53.8986 241,83.5C 256.254,121.727 249.754,155.727 221.5,185.5C 189.999,213.775 154.665,219.608 115.5,203C 90.9214,191.427 74.088,172.927 65,147.5C 63.3123,140.37 62.1457,133.204 61.5,126C 46.0721,128.193 30.5721,130.027 15,131.5C 11.1017,131.604 7.43507,131.271 4,130.5C 0.945053,105.358 5.94505,82.0247 19,60.5C 36.5909,35.1923 60.9242,21.1923 92,18.5C 101.915,19.6546 111.748,21.3213 121.5,23.5C 128.921,21.1036 136.421,19.1036 144,17.5C 144.333,17.8333 144.667,18.1667 145,18.5C 146.583,13.2441 148.083,7.91075 149.5,2.5 Z M 141.5,19.5 C 142.822,19.33 143.989,19.6634 145,20.5C 146.393,25.0947 146.726,29.7613 146,34.5C 140.668,35.2808 135.335,36.2808 130,37.5C 124.959,34.9973 124.126,31.3307 127.5,26.5C 132.529,24.6523 137.195,22.319 141.5,19.5 Z"/></g>
<g><path style="opacity:1" fill="#39a05d" d="M 17.5,71.5 C 15.2761,76.5459 13.2761,81.7126 11.5,87C 10.4643,89.4075 10.4643,91.7409 11.5,94C 10.8333,94.3333 10.1667,94.6667 9.5,95C 9.41061,96.7161 9.74394,98.5494 10.5,100.5C 8.00547,103.739 6.67214,107.072 6.5,110.5C 6.5,107.833 6.5,105.167 6.5,102.5C 7.92831,96.171 9.42831,89.8377 11,83.5C 12.1399,78.8869 14.3066,74.8869 17.5,71.5 Z"/></g>
<g><path style="opacity:1" fill="#3e7850" d="M 51.5,83.5 C 51.9465,86.0101 51.2798,88.0101 49.5,89.5C 49.2594,87.1016 49.9261,85.1016 51.5,83.5 Z"/></g>
<g><path style="opacity:1" fill="#3d764d" d="M 75.5,68.5 C 75.5,75.1667 75.5,81.8333 75.5,88.5C 75.6716,89.4916 75.3382,90.1583 74.5,90.5C 74.6663,83.4921 74.4996,76.4921 74,69.5C 73.5776,67.5743 72.4109,66.5743 70.5,66.5C 70.811,65.5222 71.4777,64.8555 72.5,64.5C 73.8592,65.6243 74.8592,66.9577 75.5,68.5 Z"/></g>
<g><path style="opacity:1" fill="#3a8c54" d="M 54.5,74.5 C 53.3747,76.1288 52.0414,77.6288 50.5,79C 46.8484,79.4986 43.1817,79.6653 39.5,79.5C 42.8756,77.9177 46.5422,77.2511 50.5,77.5C 50.5,76.5 50.5,75.5 50.5,74.5C 51.8333,74.5 53.1667,74.5 54.5,74.5 Z"/></g>
<g><path style="opacity:1" fill="#38ae62" d="M 187.5,43.5 C 211.997,50.8299 229.497,66.1632 240,89.5C 241.339,95.6176 242.839,101.618 244.5,107.5C 244.721,116.866 244.387,126.199 243.5,135.5C 242.227,142.954 239.894,149.954 236.5,156.5C 235.159,153.396 235.493,150.562 237.5,148C 236.192,147.176 234.692,146.676 233,146.5C 232.365,147.966 231.531,149.3 230.5,150.5C 231.282,152.329 230.616,153.829 228.5,155C 227.833,155.667 227.167,155.667 226.5,155C 227.696,154.346 227.696,153.846 226.5,153.5C 225.261,155.007 225.595,156.174 227.5,157C 226.255,160.159 225.088,159.993 224,156.5C 222.256,157.649 222.089,158.983 223.5,160.5C 223.023,161.478 222.357,162.311 221.5,163C 222.182,165.603 222.349,168.103 222,170.5C 221.667,170.833 221.333,171.167 221,171.5C 219.981,170.313 218.814,169.313 217.5,168.5C 216.529,171.134 214.695,171.134 212,168.5C 211.333,169.167 210.667,169.833 210,170.5C 209.577,169.044 208.744,168.544 207.5,169C 209.017,171.761 208.184,173.594 205,174.5C 204.667,174.167 204.333,173.833 204,173.5C 201.764,175.676 202.264,177.009 205.5,177.5C 206.895,176.185 207.895,176.519 208.5,178.5C 207.176,179.935 205.51,180.935 203.5,181.5C 202.096,183.832 201.263,186.499 201,189.5C 198.688,189.31 196.355,189.977 194,191.5C 191.994,189.998 190.328,190.331 189,192.5C 185.591,191.378 182.091,191.211 178.5,192C 180.061,192.318 181.228,193.151 182,194.5C 182.556,192.405 183.056,192.238 183.5,194C 182.147,196.38 180.981,198.88 180,201.5C 179.395,199.519 178.395,199.185 177,200.5C 174.333,199.833 171.667,199.167 169,198.5C 167.867,200.211 166.367,200.711 164.5,200C 165.328,199.085 166.328,198.419 167.5,198C 166.584,197.626 165.75,197.126 165,196.5C 163.829,197.893 162.329,198.727 160.5,199C 161.167,199.667 161.833,200.333 162.5,201C 159.475,202.434 156.475,202.934 153.5,202.5C 150.352,201.86 150.019,200.86 152.5,199.5C 151.738,199.089 150.738,198.923 149.5,199C 150.833,197.16 150.666,196.66 149,197.5C 148.667,196.833 148.333,196.167 148,195.5C 146.167,195.667 144.333,195.833 142.5,196C 143.743,194.846 144.743,193.512 145.5,192C 143.38,189.591 141.38,187.091 139.5,184.5C 140.239,181.282 141.906,178.782 144.5,177C 143.521,171.564 142.688,171.398 142,176.5C 141.95,174.256 141.117,172.589 139.5,171.5C 138.167,171.5 136.833,171.5 135.5,171.5C 135.232,173.099 135.566,174.432 136.5,175.5C 136.5,175.833 136.5,176.167 136.5,176.5C 135.577,177.303 134.577,177.47 133.5,177C 132.15,175.282 130.983,173.448 130,171.5C 129.849,174.119 129.015,176.453 127.5,178.5C 124.677,177.367 124.01,175.533 125.5,173C 125.241,171.739 124.574,170.739 123.5,170C 124.308,169.692 124.975,169.192 125.5,168.5C 124.833,168.167 124.167,167.833 123.5,167.5C 124.522,166.646 125.355,165.646 126,164.5C 126.667,165.833 127.333,165.833 128,164.5C 128.359,161.456 129.026,161.122 130,163.5C 130.483,162.552 130.649,161.552 130.5,160.5C 131.552,160.649 132.552,160.483 133.5,160C 133.167,159.667 132.833,159.333 132.5,159C 133.574,158.261 134.241,157.261 134.5,156C 133.427,154.584 133.427,153.25 134.5,152C 132.043,150.488 132.043,149.154 134.5,148C 132.974,146.113 130.974,145.113 128.5,145C 132.428,142.158 134.095,138.492 133.5,134C 134.167,132 134.833,130 135.5,128C 135.095,127.055 134.428,126.388 133.5,126C 135.901,125.195 135.734,124.362 133,123.5C 132.53,121.226 131.53,119.226 130,117.5C 129.333,120.167 128.667,120.167 128,117.5C 127.667,118.167 127.333,118.833 127,119.5C 126.365,118.034 125.531,116.7 124.5,115.5C 124.833,115.167 125.167,114.833 125.5,114.5C 126.258,115.811 127.258,116.311 128.5,116C 128.167,115.667 127.833,115.333 127.5,115C 130.374,113.701 132.207,111.535 133,108.5C 133.626,110.991 134.459,110.991 135.5,108.5C 136.812,109.46 138.146,109.294 139.5,108C 138.019,107.02 136.685,105.853 135.5,104.5C 134.167,102.833 134.167,101.167 135.5,99.5C 138.593,101.535 140.593,103.869 141.5,106.5C 144.063,106.263 144.063,105.763 141.5,105C 142.5,104.167 143.5,103.333 144.5,102.5C 141.107,102.036 141.107,101.036 144.5,99.5C 145.086,99.7093 145.586,100.043 146,100.5C 145.324,102.963 145.491,105.13 146.5,107C 143.972,108.316 143.972,109.483 146.5,110.5C 145.753,110.736 144.92,111.07 144,111.5C 142.312,110.675 142.145,109.675 143.5,108.5C 142.998,107.479 142.332,107.312 141.5,108C 139.062,110.562 139.062,113.062 141.5,115.5C 142.665,114.509 143.832,113.509 145,112.5C 146.798,113.504 148.632,114.004 150.5,114C 151.024,112.877 151.024,111.544 150.5,110C 151.672,108.161 153.172,106.661 155,105.5C 155.333,105.833 155.667,106.167 156,106.5C 156.309,105.234 156.809,104.067 157.5,103C 156.167,102.333 156.167,101.667 157.5,101C 155.009,100.374 155.009,99.5407 157.5,98.5C 156.313,97.4805 155.313,96.3139 154.5,95C 155.742,94.6886 156.742,95.1886 157.5,96.5C 158.506,96.0623 158.506,95.3957 157.5,94.5C 158.689,93.5713 160.022,93.238 161.5,93.5C 161.413,96.5983 161.913,96.9316 163,94.5C 164.881,96.8253 166.548,96.8253 168,94.5C 170.881,96.1507 173.048,95.484 174.5,92.5C 173.833,92.1667 173.167,91.8333 172.5,91.5C 174.23,89.1639 175.73,89.1639 177,91.5C 178.852,89.7703 178.686,88.6036 176.5,88C 177.308,87.6924 177.975,87.1924 178.5,86.5C 176.446,84.8062 174.112,83.6395 171.5,83C 172.711,82.1072 172.711,81.2739 171.5,80.5C 169.624,82.8729 167.958,85.3729 166.5,88C 170.5,89.3333 170.5,90.6667 166.5,92C 163.445,92.7595 160.945,91.9261 159,89.5C 158.333,90.8333 157.667,90.8333 157,89.5C 156.396,91.6857 155.23,91.8524 153.5,90C 154.28,88.927 154.113,87.7604 153,86.5C 152.072,88.3348 150.906,88.6682 149.5,87.5C 148.749,88.376 148.249,89.376 148,90.5C 147.577,89.0439 146.744,88.5439 145.5,89C 146.517,90.0495 146.684,91.2161 146,92.5C 145.481,91.4844 144.647,90.8178 143.5,90.5C 141.462,91.6345 139.462,91.6345 137.5,90.5C 136.481,91.6872 135.314,92.6872 134,93.5C 133.333,92.5 133.333,91.5 134,90.5C 134.333,90.8333 134.667,91.1667 135,91.5C 135.374,90.5838 135.874,89.7504 136.5,89C 135.424,87.2739 135.257,85.4406 136,83.5C 136.763,86.0635 137.263,86.0635 137.5,83.5C 137.518,81.6274 137.018,81.2941 136,82.5C 135.333,81.5 135.333,80.5 136,79.5C 136.333,79.8333 136.667,80.1667 137,80.5C 137.333,79.5 137.667,78.5 138,77.5C 138.333,77.8333 138.667,78.1667 139,78.5C 140.549,75.9974 142.216,75.9974 144,78.5C 144.617,77.5509 144.451,76.7175 143.5,76C 145.134,75.5065 146.801,75.3398 148.5,75.5C 148.5,74.5 148.5,73.5 148.5,72.5C 145.756,71.4905 143.423,71.8238 141.5,73.5C 141.051,70.9564 141.051,68.2898 141.5,65.5C 145.015,66.0431 148.348,67.0431 151.5,68.5C 151.141,70.7659 151.808,72.5993 153.5,74C 152.833,74.3333 152.167,74.6667 151.5,75C 153.008,76.5067 154.341,78.1733 155.5,80C 156.449,80.6172 157.282,80.4506 158,79.5C 158.617,80.4491 158.451,81.2825 157.5,82C 158.167,82.6667 158.833,82.6667 159.5,82C 160.211,80.7453 161.044,79.5786 162,78.5C 166.288,82.6383 170.121,82.1383 173.5,77C 172.978,72.8079 170.645,70.1412 166.5,69C 168.125,66.89 169.458,64.5566 170.5,62C 169.809,60.9326 169.309,59.7659 169,58.5C 167.215,59.2401 165.382,59.9067 163.5,60.5C 162.614,61.325 162.281,62.325 162.5,63.5C 161.448,63.3505 160.448,63.5172 159.5,64C 161.392,64.9734 163.392,65.6401 165.5,66C 163.741,66.9804 162.074,67.647 160.5,68C 164.089,67.7096 165.589,69.2096 165,72.5C 164.667,71.8333 164.333,71.1667 164,70.5C 162.965,73.7864 161.465,74.1197 159.5,71.5C 157.512,72.2888 157.179,73.4555 158.5,75C 157.256,75.4561 156.423,74.9561 156,73.5C 155.667,74.5 155.333,75.5 155,76.5C 154.822,73.4582 153.988,70.6249 152.5,68C 153.093,66.1183 154.427,65.1183 156.5,65C 155.167,64.3333 155.167,63.6667 156.5,63C 151.249,62.1963 146.082,62.363 141,63.5C 140.333,62.8333 139.667,62.1667 139,61.5C 137.862,57.879 137.028,54.2124 136.5,50.5C 138.855,52.9226 139.855,55.9226 139.5,59.5C 142.434,60.2877 145.434,60.9544 148.5,61.5C 154.759,60.1229 161.093,58.9562 167.5,58C 168.399,56.3484 169.399,54.8484 170.5,53.5C 171.496,53.5858 172.329,53.2524 173,52.5C 173.176,49.1182 173.676,45.7848 174.5,42.5C 175.607,41.9781 176.774,41.6448 178,41.5C 181.007,42.979 184.174,43.6457 187.5,43.5 Z"/></g>
<g><path style="opacity:1" fill="#37ab5f" d="M 120.5,44.5 C 120.5,46.8333 120.5,49.1667 120.5,51.5C 118.692,52.9179 118.025,54.9179 118.5,57.5C 118.5,57.8333 118.5,58.1667 118.5,58.5C 117.883,58.6107 117.383,58.944 117,59.5C 116.56,61.8659 116.06,64.1992 115.5,66.5C 115.477,68.9267 114.977,71.26 114,73.5C 95.0224,109.247 65.1891,126.914 24.5,126.5C 19.8215,126.666 15.1548,126.499 10.5,126C 11.2524,125.329 11.5858,124.496 11.5,123.5C 21.6534,111.846 32.3201,100.68 43.5,90C 44.448,89.5172 45.448,89.3505 46.5,89.5C 46.1112,98.026 43.9445,106.026 40,113.5C 39.3333,115.167 39.3333,116.833 40,118.5C 41.815,114.204 44.1483,110.204 47,106.5C 47.5482,102.83 48.0482,99.1629 48.5,95.5C 49.4614,93.7354 49.7947,91.7354 49.5,89.5C 51.2798,88.0101 51.9465,86.0101 51.5,83.5C 57.1783,77.1941 63.5116,71.5274 70.5,66.5C 72.4109,66.5743 73.5776,67.5743 74,69.5C 74.4996,76.4921 74.6663,83.4921 74.5,90.5C 74.0246,94.4941 73.0246,98.3274 71.5,102C 72.0104,103.826 72.8438,103.993 74,102.5C 74.9931,99.5259 75.8264,96.5259 76.5,93.5C 77.1174,93.3893 77.6174,93.056 78,92.5C 78.8213,85.3209 78.6546,78.3209 77.5,71.5C 77.5,70.8333 77.5,70.1667 77.5,69.5C 76.8654,66.5071 76.6987,63.5071 77,60.5C 83.7089,54.9519 90.5422,49.6186 97.5,44.5C 99.1116,47.614 100.445,50.9474 101.5,54.5C 101.325,62.916 101.325,71.2494 101.5,79.5C 103.87,72.553 104.87,65.3863 104.5,58C 104.491,51.9758 103.991,46.1425 103,40.5C 107.067,38.0251 110.9,35.1917 114.5,32C 116.436,31.187 118.436,30.687 120.5,30.5C 120.5,35.1667 120.5,39.8333 120.5,44.5 Z"/></g>
<g><path style="opacity:1" fill="#3d5143" d="M 77.5,87.5 C 76.8505,89.4352 76.5172,91.4352 76.5,93.5C 75.8264,96.5259 74.9931,99.5259 74,102.5C 72.8438,103.993 72.0104,103.826 71.5,102C 73.0246,98.3274 74.0246,94.4941 74.5,90.5C 75.3382,90.1583 75.6716,89.4916 75.5,88.5C 76.1667,88.1667 76.8333,87.8333 77.5,87.5 Z"/></g>
<g><path style="opacity:1" fill="#403840" d="M 75.5,68.5 C 76.1667,68.8333 76.8333,69.1667 77.5,69.5C 77.5,70.1667 77.5,70.8333 77.5,71.5C 77.5,76.8333 77.5,82.1667 77.5,87.5C 76.8333,87.8333 76.1667,88.1667 75.5,88.5C 75.5,81.8333 75.5,75.1667 75.5,68.5 Z"/></g>
<g><path style="opacity:1" fill="#407b53" d="M 77.5,71.5 C 78.6546,78.3209 78.8213,85.3209 78,92.5C 77.6174,93.056 77.1174,93.3893 76.5,93.5C 76.5172,91.4352 76.8505,89.4352 77.5,87.5C 77.5,82.1667 77.5,76.8333 77.5,71.5 Z"/></g>
<g><path style="opacity:1" fill="#367a4e" d="M 118.5,58.5 C 117.94,60.8008 117.44,63.1341 117,65.5C 116.617,66.056 116.117,66.3893 115.5,66.5C 116.06,64.1992 116.56,61.8659 117,59.5C 117.383,58.944 117.883,58.6107 118.5,58.5 Z"/></g>
<g><path style="opacity:1" fill="#3b4f4b" d="M 158.5,30.5 C 158.334,35.8437 158.501,41.1771 159,46.5C 159.596,43.4604 160.763,40.7937 162.5,38.5C 167.032,38.1818 171.366,38.5151 175.5,39.5C 171.445,39.1758 167.445,39.5091 163.5,40.5C 172.466,41.4902 174.8,45.8235 170.5,53.5C 169.399,54.8484 168.399,56.3484 167.5,58C 161.093,58.9562 154.759,60.1229 148.5,61.5C 145.434,60.9544 142.434,60.2877 139.5,59.5C 139.855,55.9226 138.855,52.9226 136.5,50.5C 135.212,48.9652 135.212,47.2985 136.5,45.5C 138.726,43.2776 141.392,41.9443 144.5,41.5C 144.833,41.5 145.167,41.5 145.5,41.5C 147.044,44.248 147.71,47.248 147.5,50.5C 146.539,48.7354 146.205,46.7354 146.5,44.5C 143.956,44.1043 141.789,44.771 140,46.5C 137.837,56.3929 141.67,60.3929 151.5,58.5C 158.451,59.4273 164.284,57.4273 169,52.5C 170.183,45.9632 167.35,43.2966 160.5,44.5C 160.768,47.1194 160.435,49.6194 159.5,52C 155.642,52.8099 151.976,52.6433 148.5,51.5C 150.857,51.6633 153.19,51.4966 155.5,51C 156.056,50.6174 156.389,50.1174 156.5,49.5C 157.13,43.0662 157.797,36.7329 158.5,30.5 Z"/></g>
<g><path style="opacity:1" fill="#38ab5e" d="M 115.5,26.5 C 115.5,27.5 115.5,28.5 115.5,29.5C 109.317,31.5949 103.651,34.7616 98.5,39C 95.854,39.4974 93.1873,39.6641 90.5,39.5C 90.5,38.8333 90.1667,38.5 89.5,38.5C 81.4943,35.9588 73.161,34.9588 64.5,35.5C 64.5,36.5 64.5,37.5 64.5,38.5C 69.8797,38.3243 75.213,38.6576 80.5,39.5C 84.4795,40.833 88.4795,42.1663 92.5,43.5C 87.5997,46.0633 83.2664,49.3967 79.5,53.5C 69.0431,53.6976 58.7098,54.0309 48.5,54.5C 45.3246,55.4287 41.9913,56.262 38.5,57C 35.9722,57.9978 35.9722,58.8311 38.5,59.5C 49.437,57.2265 60.437,56.8932 71.5,58.5C 66.5365,64.4601 60.8698,69.7934 54.5,74.5C 53.1667,74.5 51.8333,74.5 50.5,74.5C 50.5,75.5 50.5,76.5 50.5,77.5C 46.5422,77.2511 42.8756,77.9177 39.5,79.5C 32.9532,80.5538 26.6199,82.3871 20.5,85C 19.2718,85.779 18.2718,86.779 17.5,88C 17.8333,88.5 18.1667,89 18.5,89.5C 24.9429,85.4731 31.9429,83.1398 39.5,82.5C 41.604,82.2011 43.604,82.5344 45.5,83.5C 32.5062,96.3285 20.0062,109.662 8,123.5C 7.32924,124.252 6.4959,124.586 5.5,124.5C 5.28336,119.77 5.61669,115.103 6.5,110.5C 6.67214,107.072 8.00547,103.739 10.5,100.5C 9.74394,98.5494 9.41061,96.7161 9.5,95C 10.1667,94.6667 10.8333,94.3333 11.5,94C 10.4643,91.7409 10.4643,89.4075 11.5,87C 13.2761,81.7126 15.2761,76.5459 17.5,71.5C 20.8245,63.149 25.8245,55.8156 32.5,49.5C 55.6434,26.0618 83.3101,18.3952 115.5,26.5 Z"/></g>
<g><path style="opacity:1" fill="#404b43" d="M 89.5,38.5 C 90.1667,38.5 90.5,38.8333 90.5,39.5C 92.9686,40.3171 95.6353,40.8171 98.5,41C 97.6634,42.0113 97.33,43.1779 97.5,44.5C 90.5422,49.6186 83.7089,54.9519 77,60.5C 76.6987,63.5071 76.8654,66.5071 77.5,69.5C 76.8333,69.1667 76.1667,68.8333 75.5,68.5C 74.8592,66.9577 73.8592,65.6243 72.5,64.5C 71.4777,64.8555 70.811,65.5222 70.5,66.5C 63.5116,71.5274 57.1783,77.1941 51.5,83.5C 49.9261,85.1016 49.2594,87.1016 49.5,89.5C 49.7947,91.7354 49.4614,93.7354 48.5,95.5C 47.9766,92.4336 46.9766,89.4336 45.5,86.5C 46.3094,84.9291 46.6427,83.2624 46.5,81.5C 43.9407,81.1984 41.6074,81.5318 39.5,82.5C 31.9429,83.1398 24.9429,85.4731 18.5,89.5C 18.1667,89 17.8333,88.5 17.5,88C 18.2718,86.779 19.2718,85.779 20.5,85C 26.6199,82.3871 32.9532,80.5538 39.5,79.5C 43.1817,79.6653 46.8484,79.4986 50.5,79C 52.0414,77.6288 53.3747,76.1288 54.5,74.5C 60.8698,69.7934 66.5365,64.4601 71.5,58.5C 68.3586,57.6787 65.0252,57.1787 61.5,57C 60.8333,56.6667 60.1667,56.3333 59.5,56C 60.7932,55.51 62.1266,55.3433 63.5,55.5C 68.5111,55.6659 73.5111,55.4993 78.5,55C 79.056,54.6174 79.3893,54.1174 79.5,53.5C 83.2664,49.3967 87.5997,46.0633 92.5,43.5C 88.4795,42.1663 84.4795,40.833 80.5,39.5C 80.0825,38.7784 79.4158,38.2784 78.5,38C 82.1703,37.7208 85.837,37.8875 89.5,38.5 Z"/></g>
<g><path style="opacity:1" fill="#4b7577" d="M 147.5,50.5 C 147.5,51.1667 147.833,51.5 148.5,51.5C 151.976,52.6433 155.642,52.8099 159.5,52C 160.435,49.6194 160.768,47.1194 160.5,44.5C 167.35,43.2966 170.183,45.9632 169,52.5C 164.284,57.4273 158.451,59.4273 151.5,58.5C 141.67,60.3929 137.837,56.3929 140,46.5C 141.789,44.771 143.956,44.1043 146.5,44.5C 146.205,46.7354 146.539,48.7354 147.5,50.5 Z"/></g>
<g><path style="opacity:1" fill="#396148" d="M 48.5,54.5 C 53.6946,54.1795 58.6946,54.5128 63.5,55.5C 62.1266,55.3433 60.7932,55.51 59.5,56C 60.1667,56.3333 60.8333,56.6667 61.5,57C 65.0252,57.1787 68.3586,57.6787 71.5,58.5C 60.437,56.8932 49.437,57.2265 38.5,59.5C 35.9722,58.8311 35.9722,57.9978 38.5,57C 41.9913,56.262 45.3246,55.4287 48.5,54.5 Z"/></g>
<g><path style="opacity:1" fill="#388c53" d="M 48.5,54.5 C 58.7098,54.0309 69.0431,53.6976 79.5,53.5C 79.3893,54.1174 79.056,54.6174 78.5,55C 73.5111,55.4993 68.5111,55.6659 63.5,55.5C 58.6946,54.5128 53.6946,54.1795 48.5,54.5 Z"/></g>
<g><path style="opacity:1" fill="#37ad5e" d="M 144.5,41.5 C 141.392,41.9443 138.726,43.2776 136.5,45.5C 135.212,47.2985 135.212,48.9652 136.5,50.5C 137.028,54.2124 137.862,57.879 139,61.5C 139.667,62.1667 140.333,62.8333 141,63.5C 146.082,62.363 151.249,62.1963 156.5,63C 155.167,63.6667 155.167,64.3333 156.5,65C 154.427,65.1183 153.093,66.1183 152.5,68C 153.988,70.6249 154.822,73.4582 155,76.5C 155.333,75.5 155.667,74.5 156,73.5C 156.423,74.9561 157.256,75.4561 158.5,75C 157.179,73.4555 157.512,72.2888 159.5,71.5C 161.465,74.1197 162.965,73.7864 164,70.5C 164.333,71.1667 164.667,71.8333 165,72.5C 165.589,69.2096 164.089,67.7096 160.5,68C 162.074,67.647 163.741,66.9804 165.5,66C 163.392,65.6401 161.392,64.9734 159.5,64C 160.448,63.5172 161.448,63.3505 162.5,63.5C 162.281,62.325 162.614,61.325 163.5,60.5C 165.382,59.9067 167.215,59.2401 169,58.5C 169.309,59.7659 169.809,60.9326 170.5,62C 169.458,64.5566 168.125,66.89 166.5,69C 170.645,70.1412 172.978,72.8079 173.5,77C 170.121,82.1383 166.288,82.6383 162,78.5C 161.044,79.5786 160.211,80.7453 159.5,82C 158.833,82.6667 158.167,82.6667 157.5,82C 158.451,81.2825 158.617,80.4491 158,79.5C 157.282,80.4506 156.449,80.6172 155.5,80C 154.341,78.1733 153.008,76.5067 151.5,75C 152.167,74.6667 152.833,74.3333 153.5,74C 151.808,72.5993 151.141,70.7659 151.5,68.5C 148.348,67.0431 145.015,66.0431 141.5,65.5C 141.051,68.2898 141.051,70.9564 141.5,73.5C 143.423,71.8238 145.756,71.4905 148.5,72.5C 148.5,73.5 148.5,74.5 148.5,75.5C 146.801,75.3398 145.134,75.5065 143.5,76C 144.451,76.7175 144.617,77.5509 144,78.5C 142.216,75.9974 140.549,75.9974 139,78.5C 138.667,78.1667 138.333,77.8333 138,77.5C 137.667,78.5 137.333,79.5 137,80.5C 136.667,80.1667 136.333,79.8333 136,79.5C 135.333,80.5 135.333,81.5 136,82.5C 137.018,81.2941 137.518,81.6274 137.5,83.5C 137.263,86.0635 136.763,86.0635 136,83.5C 135.257,85.4406 135.424,87.2739 136.5,89C 135.874,89.7504 135.374,90.5838 135,91.5C 134.667,91.1667 134.333,90.8333 134,90.5C 133.333,91.5 133.333,92.5 134,93.5C 135.314,92.6872 136.481,91.6872 137.5,90.5C 139.462,91.6345 141.462,91.6345 143.5,90.5C 144.647,90.8178 145.481,91.4844 146,92.5C 146.684,91.2161 146.517,90.0495 145.5,89C 146.744,88.5439 147.577,89.0439 148,90.5C 148.249,89.376 148.749,88.376 149.5,87.5C 150.906,88.6682 152.072,88.3348 153,86.5C 154.113,87.7604 154.28,88.927 153.5,90C 155.23,91.8524 156.396,91.6857 157,89.5C 157.667,90.8333 158.333,90.8333 159,89.5C 160.945,91.9261 163.445,92.7595 166.5,92C 170.5,90.6667 170.5,89.3333 166.5,88C 167.958,85.3729 169.624,82.8729 171.5,80.5C 172.711,81.2739 172.711,82.1072 171.5,83C 174.112,83.6395 176.446,84.8062 178.5,86.5C 177.975,87.1924 177.308,87.6924 176.5,88C 178.686,88.6036 178.852,89.7703 177,91.5C 175.73,89.1639 174.23,89.1639 172.5,91.5C 173.167,91.8333 173.833,92.1667 174.5,92.5C 173.048,95.484 170.881,96.1507 168,94.5C 166.548,96.8253 164.881,96.8253 163,94.5C 161.913,96.9316 161.413,96.5983 161.5,93.5C 160.022,93.238 158.689,93.5713 157.5,94.5C 158.506,95.3957 158.506,96.0623 157.5,96.5C 156.742,95.1886 155.742,94.6886 154.5,95C 155.313,96.3139 156.313,97.4805 157.5,98.5C 155.009,99.5407 155.009,100.374 157.5,101C 156.167,101.667 156.167,102.333 157.5,103C 156.809,104.067 156.309,105.234 156,106.5C 155.667,106.167 155.333,105.833 155,105.5C 153.172,106.661 151.672,108.161 150.5,110C 151.024,111.544 151.024,112.877 150.5,114C 148.632,114.004 146.798,113.504 145,112.5C 143.832,113.509 142.665,114.509 141.5,115.5C 139.062,113.062 139.062,110.562 141.5,108C 142.332,107.312 142.998,107.479 143.5,108.5C 142.145,109.675 142.312,110.675 144,111.5C 144.92,111.07 145.753,110.736 146.5,110.5C 143.972,109.483 143.972,108.316 146.5,107C 145.491,105.13 145.324,102.963 146,100.5C 145.586,100.043 145.086,99.7093 144.5,99.5C 141.107,101.036 141.107,102.036 144.5,102.5C 143.5,103.333 142.5,104.167 141.5,105C 144.063,105.763 144.063,106.263 141.5,106.5C 140.593,103.869 138.593,101.535 135.5,99.5C 134.167,101.167 134.167,102.833 135.5,104.5C 136.685,105.853 138.019,107.02 139.5,108C 138.146,109.294 136.812,109.46 135.5,108.5C 134.459,110.991 133.626,110.991 133,108.5C 132.207,111.535 130.374,113.701 127.5,115C 127.833,115.333 128.167,115.667 128.5,116C 127.258,116.311 126.258,115.811 125.5,114.5C 125.167,114.833 124.833,115.167 124.5,115.5C 125.531,116.7 126.365,118.034 127,119.5C 127.333,118.833 127.667,118.167 128,117.5C 128.667,120.167 129.333,120.167 130,117.5C 131.53,119.226 132.53,121.226 133,123.5C 135.734,124.362 135.901,125.195 133.5,126C 134.428,126.388 135.095,127.055 135.5,128C 134.833,130 134.167,132 133.5,134C 134.095,138.492 132.428,142.158 128.5,145C 130.974,145.113 132.974,146.113 134.5,148C 132.043,149.154 132.043,150.488 134.5,152C 133.427,153.25 133.427,154.584 134.5,156C 134.241,157.261 133.574,158.261 132.5,159C 132.833,159.333 133.167,159.667 133.5,160C 132.552,160.483 131.552,160.649 130.5,160.5C 130.649,161.552 130.483,162.552 130,163.5C 129.026,161.122 128.359,161.456 128,164.5C 127.333,165.833 126.667,165.833 126,164.5C 125.355,165.646 124.522,166.646 123.5,167.5C 124.167,167.833 124.833,168.167 125.5,168.5C 124.975,169.192 124.308,169.692 123.5,170C 124.574,170.739 125.241,171.739 125.5,173C 124.01,175.533 124.677,177.367 127.5,178.5C 129.015,176.453 129.849,174.119 130,171.5C 130.983,173.448 132.15,175.282 133.5,177C 134.577,177.47 135.577,177.303 136.5,176.5C 137.5,176.5 138.5,176.5 139.5,176.5C 139.5,174.833 139.5,173.167 139.5,171.5C 141.117,172.589 141.95,174.256 142,176.5C 142.688,171.398 143.521,171.564 144.5,177C 141.906,178.782 140.239,181.282 139.5,184.5C 141.38,187.091 143.38,189.591 145.5,192C 144.743,193.512 143.743,194.846 142.5,196C 144.333,195.833 146.167,195.667 148,195.5C 148.333,196.167 148.667,196.833 149,197.5C 150.666,196.66 150.833,197.16 149.5,199C 150.738,198.923 151.738,199.089 152.5,199.5C 150.019,200.86 150.352,201.86 153.5,202.5C 156.475,202.934 159.475,202.434 162.5,201C 161.833,200.333 161.167,199.667 160.5,199C 162.329,198.727 163.829,197.893 165,196.5C 165.75,197.126 166.584,197.626 167.5,198C 166.328,198.419 165.328,199.085 164.5,200C 166.367,200.711 167.867,200.211 169,198.5C 171.667,199.167 174.333,199.833 177,200.5C 178.395,199.185 179.395,199.519 180,201.5C 180.981,198.88 182.147,196.38 183.5,194C 183.056,192.238 182.556,192.405 182,194.5C 181.228,193.151 180.061,192.318 178.5,192C 182.091,191.211 185.591,191.378 189,192.5C 190.328,190.331 191.994,189.998 194,191.5C 196.355,189.977 198.688,189.31 201,189.5C 201.263,186.499 202.096,183.832 203.5,181.5C 205.51,180.935 207.176,179.935 208.5,178.5C 207.895,176.519 206.895,176.185 205.5,177.5C 202.264,177.009 201.764,175.676 204,173.5C 204.333,173.833 204.667,174.167 205,174.5C 208.184,173.594 209.017,171.761 207.5,169C 208.744,168.544 209.577,169.044 210,170.5C 210.667,169.833 211.333,169.167 212,168.5C 214.695,171.134 216.529,171.134 217.5,168.5C 218.814,169.313 219.981,170.313 221,171.5C 221.333,171.167 221.667,170.833 222,170.5C 222.349,168.103 222.182,165.603 221.5,163C 222.357,162.311 223.023,161.478 223.5,160.5C 222.089,158.983 222.256,157.649 224,156.5C 225.088,159.993 226.255,160.159 227.5,157C 225.595,156.174 225.261,155.007 226.5,153.5C 227.696,153.846 227.696,154.346 226.5,155C 227.167,155.667 227.833,155.667 228.5,155C 230.616,153.829 231.282,152.329 230.5,150.5C 231.531,149.3 232.365,147.966 233,146.5C 234.692,146.676 236.192,147.176 237.5,148C 235.493,150.562 235.159,153.396 236.5,156.5C 231.106,167.447 224.106,177.281 215.5,186C 209.406,190.437 203.073,194.437 196.5,198C 189.4,201.435 182.067,203.935 174.5,205.5C 155.563,208.158 137.229,206.492 119.5,200.5C 97.8595,192.866 82.1928,178.533 72.5,157.5C 70.5647,152.194 68.7313,146.86 67,141.5C 65.6705,135.548 65.3372,129.548 66,123.5C 71.3443,120.156 76.8443,117.156 82.5,114.5C 86.3918,112.938 89.7251,110.605 92.5,107.5C 97.5063,102.161 102.506,96.8275 107.5,91.5C 114.427,81.4597 119.094,70.4597 121.5,58.5C 122.748,57.6661 123.415,56.3328 123.5,54.5C 124.037,50.1709 124.537,45.8376 125,41.5C 125.995,40.9341 126.828,40.2674 127.5,39.5C 129.167,39.5 130.833,39.5 132.5,39.5C 136.548,39.6054 140.548,39.2721 144.5,38.5C 144.5,39.5 144.5,40.5 144.5,41.5 Z"/></g>
<g><path style="opacity:1" fill="#369a59" d="M 175.5,39.5 C 179.605,40.4828 183.605,41.8162 187.5,43.5C 184.174,43.6457 181.007,42.979 178,41.5C 176.774,41.6448 175.607,41.9781 174.5,42.5C 173.676,45.7848 173.176,49.1182 173,52.5C 172.329,53.2524 171.496,53.5858 170.5,53.5C 174.8,45.8235 172.466,41.4902 163.5,40.5C 167.445,39.5091 171.445,39.1758 175.5,39.5 Z"/></g>
<g><path style="opacity:1" fill="#33774c" d="M 145.5,41.5 C 145.167,41.5 144.833,41.5 144.5,41.5C 144.5,40.5 144.5,39.5 144.5,38.5C 140.548,39.2721 136.548,39.6054 132.5,39.5C 136.639,38.4371 140.972,37.7704 145.5,37.5C 145.5,38.8333 145.5,40.1667 145.5,41.5 Z"/></g>
<g><path style="opacity:1" fill="#3f5345" d="M 115.5,26.5 C 117.3,27.4734 119.134,28.4734 121,29.5C 121.943,32.824 122.776,36.1574 123.5,39.5C 124.833,39.5 126.167,39.5 127.5,39.5C 126.828,40.2674 125.995,40.9341 125,41.5C 124.537,45.8376 124.037,50.1709 123.5,54.5C 123.415,56.3328 122.748,57.6661 121.5,58.5C 122.052,55.8841 122.386,53.2175 122.5,50.5C 122.461,48.0478 121.794,46.0478 120.5,44.5C 120.5,39.8333 120.5,35.1667 120.5,30.5C 118.436,30.687 116.436,31.187 114.5,32C 110.9,35.1917 107.067,38.0251 103,40.5C 103.991,46.1425 104.491,51.9758 104.5,58C 104.87,65.3863 103.87,72.553 101.5,79.5C 101.325,71.2494 101.325,62.916 101.5,54.5C 100.445,50.9474 99.1116,47.614 97.5,44.5C 97.33,43.1779 97.6634,42.0113 98.5,41C 95.6353,40.8171 92.9686,40.3171 90.5,39.5C 93.1873,39.6641 95.854,39.4974 98.5,39C 103.651,34.7616 109.317,31.5949 115.5,29.5C 115.5,28.5 115.5,27.5 115.5,26.5 Z"/></g>
<g><path style="opacity:1" fill="#356646" d="M 120.5,51.5 C 120.125,53.6976 119.458,55.6976 118.5,57.5C 118.025,54.9179 118.692,52.9179 120.5,51.5 Z"/></g>
<g><path style="opacity:1" fill="#413d40" d="M 101.5,54.5 C 100.81,50.5104 100.643,46.5104 101,42.5C 103.413,51.0074 104.08,59.6741 103,68.5C 102.826,63.6486 102.326,58.9819 101.5,54.5 Z"/></g>
<g><path style="opacity:1" fill="#3b5b45" d="M 89.5,38.5 C 85.837,37.8875 82.1703,37.7208 78.5,38C 79.4158,38.2784 80.0825,38.7784 80.5,39.5C 75.213,38.6576 69.8797,38.3243 64.5,38.5C 64.5,37.5 64.5,36.5 64.5,35.5C 73.161,34.9588 81.4943,35.9588 89.5,38.5 Z"/></g>
<g><path style="opacity:1" fill="#316c70" d="M 158.5,30.5 C 157.797,36.7329 157.13,43.0662 156.5,49.5C 154.833,49.5 153.167,49.5 151.5,49.5C 149.45,35.9422 148.95,22.2755 150,8.5C 150.309,7.23409 150.809,6.06743 151.5,5C 154.146,4.50258 156.813,4.33591 159.5,4.5C 159.416,13.1785 159.083,21.8451 158.5,30.5 Z"/></g>
<g><path style="opacity:1" fill="#367551" d="M 125.5,101.5 C 127.912,101.694 128.912,103.027 128.5,105.5C 127.5,105.5 126.5,105.5 125.5,105.5C 125.5,104.167 125.5,102.833 125.5,101.5 Z"/></g>
<g><path style="opacity:1" fill="#3f5344" d="M 39.5,82.5 C 41.6074,81.5318 43.9407,81.1984 46.5,81.5C 46.6427,83.2624 46.3094,84.9291 45.5,86.5C 46.9766,89.4336 47.9766,92.4336 48.5,95.5C 48.0482,99.1629 47.5482,102.83 47,106.5C 44.1483,110.204 41.815,114.204 40,118.5C 39.3333,116.833 39.3333,115.167 40,113.5C 43.9445,106.026 46.1112,98.026 46.5,89.5C 45.448,89.3505 44.448,89.5172 43.5,90C 32.3201,100.68 21.6534,111.846 11.5,123.5C 10.1882,124.145 9.18819,125.145 8.5,126.5C 12.1073,127.489 15.774,127.823 19.5,127.5C 15.7016,128.483 11.7016,128.817 7.5,128.5C 7.47291,126.801 6.80624,125.467 5.5,124.5C 6.4959,124.586 7.32924,124.252 8,123.5C 20.0062,109.662 32.5062,96.3285 45.5,83.5C 43.604,82.5344 41.604,82.2011 39.5,82.5 Z"/></g>
<g><path style="opacity:1" fill="#3b8b55" d="M 92.5,107.5 C 89.7251,110.605 86.3918,112.938 82.5,114.5C 85.2267,111.462 88.5601,109.129 92.5,107.5 Z"/></g>
<g><path style="opacity:1" fill="#396349" d="M 6.5,102.5 C 6.5,105.167 6.5,107.833 6.5,110.5C 5.61669,115.103 5.28336,119.77 5.5,124.5C 4.21729,117.116 4.55063,109.783 6.5,102.5 Z"/></g>
<g><path style="opacity:1" fill="#37493d" d="M 102.5,115.5 C 105.91,115.384 107.244,117.05 106.5,120.5C 105.167,120.5 103.833,120.5 102.5,120.5C 102.5,118.833 102.5,117.167 102.5,115.5 Z"/></g>
<g><path style="opacity:1" fill="#3d7451" d="M 244.5,107.5 C 245.657,115.656 245.823,123.99 245,132.5C 244.768,133.737 244.268,134.737 243.5,135.5C 244.387,126.199 244.721,116.866 244.5,107.5 Z"/></g>
<g><path style="opacity:1" fill="#3e8857" d="M 11.5,123.5 C 11.5858,124.496 11.2524,125.329 10.5,126C 15.1548,126.499 19.8215,126.666 24.5,126.5C 23.0813,127.451 21.4147,127.784 19.5,127.5C 15.774,127.823 12.1073,127.489 8.5,126.5C 9.18819,125.145 10.1882,124.145 11.5,123.5 Z"/></g>
<g><path style="opacity:1" fill="#2d6941" d="M 125.5,126.5 C 128.275,126.834 128.941,128.167 127.5,130.5C 125.889,129.68 125.222,128.346 125.5,126.5 Z"/></g>
<g><path style="opacity:1" fill="#5c6b60" d="M 79.5,131.5 C 81.1667,131.5 82.8333,131.5 84.5,131.5C 84.5,132.833 84.5,134.167 84.5,135.5C 82.8333,135.5 81.1667,135.5 79.5,135.5C 79.5,134.167 79.5,132.833 79.5,131.5 Z"/></g>
<g><path style="opacity:1" fill="#5c7063" d="M 101.5,140.5 C 104.5,140.167 105.833,141.5 105.5,144.5C 103.833,144.5 102.167,144.5 100.5,144.5C 100.433,143.041 100.766,141.708 101.5,140.5 Z"/></g>
<g><path style="opacity:1" fill="#4e6d58" d="M 93.5,163.5 C 94.8333,163.5 96.1667,163.5 97.5,163.5C 97.5,165.167 97.5,166.833 97.5,168.5C 96.1667,168.5 94.8333,168.5 93.5,168.5C 93.5,166.833 93.5,165.167 93.5,163.5 Z"/></g>
<g><path style="opacity:1" fill="#37764e" d="M 139.5,171.5 C 139.5,173.167 139.5,174.833 139.5,176.5C 138.5,176.5 137.5,176.5 136.5,176.5C 136.5,176.167 136.5,175.833 136.5,175.5C 135.566,174.432 135.232,173.099 135.5,171.5C 136.833,171.5 138.167,171.5 139.5,171.5 Z"/></g>
<g><path style="opacity:1" fill="#1d1d2e" d="M 136.5,175.5 C 136.329,172.203 136.995,171.869 138.5,174.5C 138.043,175.298 137.376,175.631 136.5,175.5 Z"/></g>
<g><path style="opacity:1" fill="#386546" d="M 115.5,175.5 C 116.434,176.568 116.768,177.901 116.5,179.5C 114.833,179.5 113.167,179.5 111.5,179.5C 111.5,177.833 111.5,176.167 111.5,174.5C 113.099,174.232 114.432,174.566 115.5,175.5 Z"/></g>
<g><path style="opacity:1" fill="#343c39" d="M 115.5,175.5 C 115.5,176.5 115.5,177.5 115.5,178.5C 114.5,178.5 113.5,178.5 112.5,178.5C 112.5,177.5 112.5,176.5 112.5,175.5C 113.5,175.5 114.5,175.5 115.5,175.5 Z"/></g>
<g><path style="opacity:1" fill="#3e935a" d="M 129.5,189.5 C 135.158,188.679 136.825,190.846 134.5,196C 132.866,196.494 131.199,196.66 129.5,196.5C 128.562,194.09 128.562,191.756 129.5,189.5 Z"/></g>
<g><path style="opacity:1" fill="#4e5a52" d="M 130.5,191.5 C 131.833,191.5 133.167,191.5 134.5,191.5C 134.5,192.5 134.5,193.5 134.5,194.5C 133.167,194.5 131.833,194.5 130.5,194.5C 130.5,193.5 130.5,192.5 130.5,191.5 Z"/></g>
<g><path style="opacity:1" fill="#38784e" d="M 119.5,200.5 C 137.229,206.492 155.563,208.158 174.5,205.5C 173.391,206.29 172.058,206.79 170.5,207C 154.951,208.4 139.617,207.4 124.5,204C 122.569,203.098 120.903,201.931 119.5,200.5 Z"/></g>
</svg>
